G04 MADE WITH FRITZING*
G04 WWW.FRITZING.ORG*
G04 DOUBLE SIDED*
G04 HOLES PLATED*
G04 CONTOUR ON CENTER OF CONTOUR VECTOR*
%ASAXBY*%
%FSLAX23Y23*%
%MOIN*%
%OFA0B0*%
%SFA1.0B1.0*%
%ADD10C,0.006000*%
%ADD11R,0.001000X0.001000*%
%LNSILK1*%
G90*
G70*
G54D10*
X313Y303D02*
X313Y222D01*
D02*
X215Y302D02*
X215Y223D01*
D02*
X687Y275D02*
X768Y275D01*
D02*
X688Y177D02*
X767Y177D01*
G54D11*
X0Y693D02*
X1004Y693D01*
X0Y692D02*
X1004Y692D01*
X0Y691D02*
X1004Y691D01*
X0Y690D02*
X1004Y690D01*
X0Y689D02*
X1004Y689D01*
X0Y688D02*
X1004Y688D01*
X0Y687D02*
X1004Y687D01*
X0Y686D02*
X1004Y686D01*
X0Y685D02*
X7Y685D01*
X997Y685D02*
X1004Y685D01*
X0Y684D02*
X7Y684D01*
X363Y684D02*
X367Y684D01*
X997Y684D02*
X1004Y684D01*
X0Y683D02*
X7Y683D01*
X348Y683D02*
X385Y683D01*
X997Y683D02*
X1004Y683D01*
X0Y682D02*
X7Y682D01*
X340Y682D02*
X393Y682D01*
X997Y682D02*
X1004Y682D01*
X0Y681D02*
X7Y681D01*
X334Y681D02*
X399Y681D01*
X997Y681D02*
X1004Y681D01*
X0Y680D02*
X7Y680D01*
X329Y680D02*
X404Y680D01*
X997Y680D02*
X1004Y680D01*
X0Y679D02*
X7Y679D01*
X325Y679D02*
X409Y679D01*
X997Y679D02*
X1004Y679D01*
X0Y678D02*
X7Y678D01*
X321Y678D02*
X413Y678D01*
X997Y678D02*
X1004Y678D01*
X0Y677D02*
X7Y677D01*
X317Y677D02*
X417Y677D01*
X997Y677D02*
X1004Y677D01*
X0Y676D02*
X7Y676D01*
X314Y676D02*
X420Y676D01*
X997Y676D02*
X1004Y676D01*
X0Y675D02*
X7Y675D01*
X310Y675D02*
X423Y675D01*
X997Y675D02*
X1004Y675D01*
X0Y674D02*
X7Y674D01*
X307Y674D02*
X359Y674D01*
X375Y674D02*
X426Y674D01*
X997Y674D02*
X1004Y674D01*
X0Y673D02*
X7Y673D01*
X305Y673D02*
X347Y673D01*
X388Y673D02*
X429Y673D01*
X997Y673D02*
X1004Y673D01*
X0Y672D02*
X7Y672D01*
X302Y672D02*
X340Y672D01*
X395Y672D02*
X432Y672D01*
X997Y672D02*
X1004Y672D01*
X0Y671D02*
X7Y671D01*
X299Y671D02*
X334Y671D01*
X400Y671D02*
X434Y671D01*
X997Y671D02*
X1004Y671D01*
X0Y670D02*
X7Y670D01*
X297Y670D02*
X329Y670D01*
X405Y670D02*
X437Y670D01*
X997Y670D02*
X1004Y670D01*
X0Y669D02*
X7Y669D01*
X295Y669D02*
X325Y669D01*
X409Y669D02*
X439Y669D01*
X997Y669D02*
X1004Y669D01*
X0Y668D02*
X7Y668D01*
X292Y668D02*
X321Y668D01*
X413Y668D02*
X441Y668D01*
X997Y668D02*
X1004Y668D01*
X0Y667D02*
X7Y667D01*
X290Y667D02*
X317Y667D01*
X417Y667D02*
X444Y667D01*
X997Y667D02*
X1004Y667D01*
X0Y666D02*
X7Y666D01*
X288Y666D02*
X314Y666D01*
X420Y666D02*
X446Y666D01*
X997Y666D02*
X1004Y666D01*
X0Y665D02*
X7Y665D01*
X286Y665D02*
X311Y665D01*
X423Y665D02*
X448Y665D01*
X997Y665D02*
X1004Y665D01*
X0Y664D02*
X7Y664D01*
X284Y664D02*
X308Y664D01*
X426Y664D02*
X450Y664D01*
X997Y664D02*
X1004Y664D01*
X0Y663D02*
X7Y663D01*
X282Y663D02*
X305Y663D01*
X428Y663D02*
X452Y663D01*
X997Y663D02*
X1004Y663D01*
X0Y662D02*
X7Y662D01*
X280Y662D02*
X303Y662D01*
X431Y662D02*
X454Y662D01*
X997Y662D02*
X1004Y662D01*
X0Y661D02*
X7Y661D01*
X278Y661D02*
X300Y661D01*
X433Y661D02*
X456Y661D01*
X997Y661D02*
X1004Y661D01*
X0Y660D02*
X7Y660D01*
X276Y660D02*
X298Y660D01*
X436Y660D02*
X457Y660D01*
X997Y660D02*
X1004Y660D01*
X0Y659D02*
X7Y659D01*
X275Y659D02*
X295Y659D01*
X438Y659D02*
X459Y659D01*
X997Y659D02*
X1004Y659D01*
X0Y658D02*
X7Y658D01*
X273Y658D02*
X293Y658D01*
X440Y658D02*
X461Y658D01*
X997Y658D02*
X1004Y658D01*
X0Y657D02*
X7Y657D01*
X271Y657D02*
X291Y657D01*
X442Y657D02*
X462Y657D01*
X997Y657D02*
X1004Y657D01*
X0Y656D02*
X7Y656D01*
X270Y656D02*
X289Y656D01*
X445Y656D02*
X464Y656D01*
X997Y656D02*
X1004Y656D01*
X0Y655D02*
X7Y655D01*
X268Y655D02*
X287Y655D01*
X447Y655D02*
X466Y655D01*
X997Y655D02*
X1004Y655D01*
X0Y654D02*
X7Y654D01*
X267Y654D02*
X285Y654D01*
X448Y654D02*
X467Y654D01*
X997Y654D02*
X1004Y654D01*
X0Y653D02*
X7Y653D01*
X265Y653D02*
X283Y653D01*
X450Y653D02*
X469Y653D01*
X997Y653D02*
X1004Y653D01*
X0Y652D02*
X7Y652D01*
X264Y652D02*
X281Y652D01*
X452Y652D02*
X470Y652D01*
X997Y652D02*
X1004Y652D01*
X0Y651D02*
X7Y651D01*
X262Y651D02*
X280Y651D01*
X454Y651D02*
X472Y651D01*
X997Y651D02*
X1004Y651D01*
X0Y650D02*
X7Y650D01*
X261Y650D02*
X278Y650D01*
X456Y650D02*
X473Y650D01*
X997Y650D02*
X1004Y650D01*
X0Y649D02*
X7Y649D01*
X259Y649D02*
X276Y649D01*
X457Y649D02*
X474Y649D01*
X997Y649D02*
X1004Y649D01*
X0Y648D02*
X7Y648D01*
X258Y648D02*
X275Y648D01*
X459Y648D02*
X476Y648D01*
X997Y648D02*
X1004Y648D01*
X0Y647D02*
X7Y647D01*
X257Y647D02*
X273Y647D01*
X461Y647D02*
X477Y647D01*
X997Y647D02*
X1004Y647D01*
X0Y646D02*
X7Y646D01*
X255Y646D02*
X271Y646D01*
X462Y646D02*
X478Y646D01*
X997Y646D02*
X1004Y646D01*
X0Y645D02*
X7Y645D01*
X254Y645D02*
X270Y645D01*
X464Y645D02*
X480Y645D01*
X997Y645D02*
X1004Y645D01*
X0Y644D02*
X7Y644D01*
X253Y644D02*
X268Y644D01*
X465Y644D02*
X481Y644D01*
X997Y644D02*
X1004Y644D01*
X0Y643D02*
X7Y643D01*
X252Y643D02*
X267Y643D01*
X467Y643D02*
X482Y643D01*
X997Y643D02*
X1004Y643D01*
X0Y642D02*
X7Y642D01*
X250Y642D02*
X265Y642D01*
X468Y642D02*
X483Y642D01*
X997Y642D02*
X1004Y642D01*
X0Y641D02*
X7Y641D01*
X249Y641D02*
X264Y641D01*
X469Y641D02*
X485Y641D01*
X997Y641D02*
X1004Y641D01*
X0Y640D02*
X7Y640D01*
X248Y640D02*
X263Y640D01*
X471Y640D02*
X486Y640D01*
X997Y640D02*
X1004Y640D01*
X0Y639D02*
X7Y639D01*
X247Y639D02*
X261Y639D01*
X472Y639D02*
X487Y639D01*
X997Y639D02*
X1004Y639D01*
X0Y638D02*
X7Y638D01*
X246Y638D02*
X260Y638D01*
X473Y638D02*
X488Y638D01*
X997Y638D02*
X1004Y638D01*
X0Y637D02*
X7Y637D01*
X245Y637D02*
X259Y637D01*
X475Y637D02*
X489Y637D01*
X997Y637D02*
X1004Y637D01*
X0Y636D02*
X7Y636D01*
X243Y636D02*
X257Y636D01*
X476Y636D02*
X490Y636D01*
X997Y636D02*
X1004Y636D01*
X0Y635D02*
X7Y635D01*
X242Y635D02*
X256Y635D01*
X477Y635D02*
X491Y635D01*
X997Y635D02*
X1004Y635D01*
X0Y634D02*
X7Y634D01*
X241Y634D02*
X255Y634D01*
X478Y634D02*
X492Y634D01*
X997Y634D02*
X1004Y634D01*
X0Y633D02*
X7Y633D01*
X240Y633D02*
X254Y633D01*
X480Y633D02*
X493Y633D01*
X997Y633D02*
X1004Y633D01*
X0Y632D02*
X7Y632D01*
X239Y632D02*
X253Y632D01*
X481Y632D02*
X494Y632D01*
X997Y632D02*
X1004Y632D01*
X0Y631D02*
X7Y631D01*
X238Y631D02*
X252Y631D01*
X482Y631D02*
X495Y631D01*
X997Y631D02*
X1004Y631D01*
X0Y630D02*
X7Y630D01*
X237Y630D02*
X250Y630D01*
X483Y630D02*
X497Y630D01*
X997Y630D02*
X1004Y630D01*
X0Y629D02*
X7Y629D01*
X236Y629D02*
X249Y629D01*
X484Y629D02*
X498Y629D01*
X997Y629D02*
X1004Y629D01*
X0Y628D02*
X7Y628D01*
X235Y628D02*
X248Y628D01*
X485Y628D02*
X499Y628D01*
X997Y628D02*
X1004Y628D01*
X0Y627D02*
X7Y627D01*
X234Y627D02*
X247Y627D01*
X486Y627D02*
X499Y627D01*
X997Y627D02*
X1004Y627D01*
X0Y626D02*
X7Y626D01*
X233Y626D02*
X246Y626D01*
X488Y626D02*
X500Y626D01*
X997Y626D02*
X1004Y626D01*
X0Y625D02*
X7Y625D01*
X232Y625D02*
X245Y625D01*
X489Y625D02*
X501Y625D01*
X997Y625D02*
X1004Y625D01*
X0Y624D02*
X7Y624D01*
X231Y624D02*
X244Y624D01*
X490Y624D02*
X502Y624D01*
X997Y624D02*
X1004Y624D01*
X0Y623D02*
X7Y623D01*
X231Y623D02*
X243Y623D01*
X491Y623D02*
X503Y623D01*
X997Y623D02*
X1004Y623D01*
X0Y622D02*
X7Y622D01*
X230Y622D02*
X242Y622D01*
X492Y622D02*
X504Y622D01*
X997Y622D02*
X1004Y622D01*
X0Y621D02*
X7Y621D01*
X229Y621D02*
X241Y621D01*
X493Y621D02*
X505Y621D01*
X997Y621D02*
X1004Y621D01*
X0Y620D02*
X7Y620D01*
X228Y620D02*
X240Y620D01*
X494Y620D02*
X506Y620D01*
X997Y620D02*
X1004Y620D01*
X0Y619D02*
X7Y619D01*
X227Y619D02*
X239Y619D01*
X494Y619D02*
X507Y619D01*
X997Y619D02*
X1004Y619D01*
X0Y618D02*
X7Y618D01*
X226Y618D02*
X238Y618D01*
X495Y618D02*
X507Y618D01*
X997Y618D02*
X1004Y618D01*
X0Y617D02*
X7Y617D01*
X225Y617D02*
X237Y617D01*
X496Y617D02*
X508Y617D01*
X997Y617D02*
X1004Y617D01*
X0Y616D02*
X7Y616D01*
X225Y616D02*
X237Y616D01*
X497Y616D02*
X509Y616D01*
X997Y616D02*
X1004Y616D01*
X0Y615D02*
X7Y615D01*
X224Y615D02*
X236Y615D01*
X498Y615D02*
X510Y615D01*
X997Y615D02*
X1004Y615D01*
X0Y614D02*
X7Y614D01*
X223Y614D02*
X235Y614D01*
X499Y614D02*
X511Y614D01*
X997Y614D02*
X1004Y614D01*
X0Y613D02*
X7Y613D01*
X222Y613D02*
X234Y613D01*
X500Y613D02*
X511Y613D01*
X997Y613D02*
X1004Y613D01*
X0Y612D02*
X7Y612D01*
X221Y612D02*
X233Y612D01*
X501Y612D02*
X512Y612D01*
X997Y612D02*
X1004Y612D01*
X0Y611D02*
X7Y611D01*
X221Y611D02*
X232Y611D01*
X502Y611D02*
X513Y611D01*
X997Y611D02*
X1004Y611D01*
X0Y610D02*
X7Y610D01*
X220Y610D02*
X231Y610D01*
X502Y610D02*
X514Y610D01*
X997Y610D02*
X1004Y610D01*
X0Y609D02*
X7Y609D01*
X219Y609D02*
X231Y609D01*
X503Y609D02*
X515Y609D01*
X997Y609D02*
X1004Y609D01*
X0Y608D02*
X7Y608D01*
X218Y608D02*
X230Y608D01*
X504Y608D02*
X515Y608D01*
X997Y608D02*
X1004Y608D01*
X0Y607D02*
X7Y607D01*
X218Y607D02*
X229Y607D01*
X505Y607D02*
X516Y607D01*
X997Y607D02*
X1004Y607D01*
X0Y606D02*
X7Y606D01*
X217Y606D02*
X228Y606D01*
X506Y606D02*
X517Y606D01*
X997Y606D02*
X1004Y606D01*
X0Y605D02*
X7Y605D01*
X216Y605D02*
X227Y605D01*
X506Y605D02*
X517Y605D01*
X997Y605D02*
X1004Y605D01*
X0Y604D02*
X7Y604D01*
X215Y604D02*
X227Y604D01*
X507Y604D02*
X518Y604D01*
X997Y604D02*
X1004Y604D01*
X0Y603D02*
X7Y603D01*
X215Y603D02*
X226Y603D01*
X508Y603D02*
X519Y603D01*
X997Y603D02*
X1004Y603D01*
X0Y602D02*
X7Y602D01*
X95Y602D02*
X96Y602D01*
X214Y602D02*
X225Y602D01*
X509Y602D02*
X519Y602D01*
X997Y602D02*
X1004Y602D01*
X0Y601D02*
X7Y601D01*
X91Y601D02*
X97Y601D01*
X214Y601D02*
X225Y601D01*
X509Y601D02*
X520Y601D01*
X997Y601D02*
X1004Y601D01*
X0Y600D02*
X7Y600D01*
X88Y600D02*
X97Y600D01*
X213Y600D02*
X224Y600D01*
X510Y600D02*
X521Y600D01*
X997Y600D02*
X1004Y600D01*
X0Y599D02*
X7Y599D01*
X84Y599D02*
X97Y599D01*
X212Y599D02*
X223Y599D01*
X511Y599D02*
X521Y599D01*
X997Y599D02*
X1004Y599D01*
X0Y598D02*
X7Y598D01*
X80Y598D02*
X98Y598D01*
X212Y598D02*
X222Y598D01*
X511Y598D02*
X522Y598D01*
X997Y598D02*
X1004Y598D01*
X0Y597D02*
X7Y597D01*
X77Y597D02*
X98Y597D01*
X211Y597D02*
X222Y597D01*
X512Y597D02*
X523Y597D01*
X997Y597D02*
X1004Y597D01*
X0Y596D02*
X7Y596D01*
X73Y596D02*
X98Y596D01*
X210Y596D02*
X221Y596D01*
X513Y596D02*
X523Y596D01*
X997Y596D02*
X1004Y596D01*
X0Y595D02*
X7Y595D01*
X70Y595D02*
X98Y595D01*
X210Y595D02*
X221Y595D01*
X513Y595D02*
X524Y595D01*
X997Y595D02*
X1004Y595D01*
X0Y594D02*
X7Y594D01*
X66Y594D02*
X99Y594D01*
X209Y594D02*
X220Y594D01*
X514Y594D02*
X525Y594D01*
X997Y594D02*
X1004Y594D01*
X0Y593D02*
X7Y593D01*
X63Y593D02*
X88Y593D01*
X93Y593D02*
X99Y593D01*
X209Y593D02*
X219Y593D01*
X515Y593D02*
X525Y593D01*
X997Y593D02*
X1004Y593D01*
X0Y592D02*
X7Y592D01*
X59Y592D02*
X84Y592D01*
X93Y592D02*
X99Y592D01*
X208Y592D02*
X219Y592D01*
X515Y592D02*
X526Y592D01*
X997Y592D02*
X1004Y592D01*
X0Y591D02*
X7Y591D01*
X55Y591D02*
X80Y591D01*
X93Y591D02*
X100Y591D01*
X207Y591D02*
X218Y591D01*
X516Y591D02*
X526Y591D01*
X997Y591D02*
X1004Y591D01*
X0Y590D02*
X7Y590D01*
X52Y590D02*
X77Y590D01*
X94Y590D02*
X100Y590D01*
X207Y590D02*
X217Y590D01*
X516Y590D02*
X527Y590D01*
X997Y590D02*
X1004Y590D01*
X0Y589D02*
X7Y589D01*
X48Y589D02*
X76Y589D01*
X94Y589D02*
X100Y589D01*
X206Y589D02*
X217Y589D01*
X517Y589D02*
X527Y589D01*
X997Y589D02*
X1004Y589D01*
X0Y588D02*
X7Y588D01*
X45Y588D02*
X76Y588D01*
X94Y588D02*
X100Y588D01*
X206Y588D02*
X216Y588D01*
X518Y588D02*
X528Y588D01*
X997Y588D02*
X1004Y588D01*
X0Y587D02*
X7Y587D01*
X45Y587D02*
X66Y587D01*
X70Y587D02*
X76Y587D01*
X94Y587D02*
X101Y587D01*
X205Y587D02*
X216Y587D01*
X518Y587D02*
X528Y587D01*
X997Y587D02*
X1004Y587D01*
X0Y586D02*
X7Y586D01*
X46Y586D02*
X63Y586D01*
X70Y586D02*
X77Y586D01*
X95Y586D02*
X101Y586D01*
X205Y586D02*
X215Y586D01*
X519Y586D02*
X529Y586D01*
X997Y586D02*
X1004Y586D01*
X0Y585D02*
X7Y585D01*
X46Y585D02*
X59Y585D01*
X71Y585D02*
X77Y585D01*
X95Y585D02*
X101Y585D01*
X204Y585D02*
X214Y585D01*
X519Y585D02*
X530Y585D01*
X997Y585D02*
X1004Y585D01*
X0Y584D02*
X7Y584D01*
X46Y584D02*
X55Y584D01*
X71Y584D02*
X77Y584D01*
X95Y584D02*
X102Y584D01*
X204Y584D02*
X214Y584D01*
X520Y584D02*
X530Y584D01*
X997Y584D02*
X1004Y584D01*
X0Y583D02*
X7Y583D01*
X47Y583D02*
X53Y583D01*
X71Y583D02*
X77Y583D01*
X96Y583D02*
X102Y583D01*
X203Y583D02*
X213Y583D01*
X520Y583D02*
X531Y583D01*
X997Y583D02*
X1004Y583D01*
X0Y582D02*
X7Y582D01*
X47Y582D02*
X53Y582D01*
X71Y582D02*
X78Y582D01*
X96Y582D02*
X102Y582D01*
X203Y582D02*
X213Y582D01*
X521Y582D02*
X531Y582D01*
X997Y582D02*
X1004Y582D01*
X0Y581D02*
X7Y581D01*
X47Y581D02*
X53Y581D01*
X72Y581D02*
X78Y581D01*
X96Y581D02*
X102Y581D01*
X202Y581D02*
X212Y581D01*
X521Y581D02*
X532Y581D01*
X997Y581D02*
X1004Y581D01*
X0Y580D02*
X7Y580D01*
X47Y580D02*
X54Y580D01*
X72Y580D02*
X78Y580D01*
X96Y580D02*
X103Y580D01*
X202Y580D02*
X212Y580D01*
X522Y580D02*
X532Y580D01*
X997Y580D02*
X1004Y580D01*
X0Y579D02*
X7Y579D01*
X48Y579D02*
X54Y579D01*
X72Y579D02*
X78Y579D01*
X97Y579D02*
X103Y579D01*
X201Y579D02*
X211Y579D01*
X523Y579D02*
X532Y579D01*
X997Y579D02*
X1004Y579D01*
X0Y578D02*
X7Y578D01*
X48Y578D02*
X54Y578D01*
X73Y578D02*
X78Y578D01*
X97Y578D02*
X103Y578D01*
X201Y578D02*
X211Y578D01*
X523Y578D02*
X533Y578D01*
X997Y578D02*
X1004Y578D01*
X0Y577D02*
X7Y577D01*
X48Y577D02*
X55Y577D01*
X73Y577D02*
X78Y577D01*
X97Y577D02*
X103Y577D01*
X200Y577D02*
X210Y577D01*
X523Y577D02*
X533Y577D01*
X997Y577D02*
X1004Y577D01*
X0Y576D02*
X7Y576D01*
X49Y576D02*
X55Y576D01*
X74Y576D02*
X77Y576D01*
X97Y576D02*
X104Y576D01*
X200Y576D02*
X210Y576D01*
X524Y576D02*
X534Y576D01*
X997Y576D02*
X1004Y576D01*
X0Y575D02*
X7Y575D01*
X49Y575D02*
X55Y575D01*
X98Y575D02*
X104Y575D01*
X199Y575D02*
X209Y575D01*
X524Y575D02*
X534Y575D01*
X997Y575D02*
X1004Y575D01*
X0Y574D02*
X7Y574D01*
X49Y574D02*
X55Y574D01*
X98Y574D02*
X104Y574D01*
X199Y574D02*
X209Y574D01*
X525Y574D02*
X535Y574D01*
X997Y574D02*
X1004Y574D01*
X0Y573D02*
X7Y573D01*
X49Y573D02*
X56Y573D01*
X98Y573D02*
X105Y573D01*
X198Y573D02*
X208Y573D01*
X525Y573D02*
X535Y573D01*
X997Y573D02*
X1004Y573D01*
X0Y572D02*
X7Y572D01*
X50Y572D02*
X56Y572D01*
X99Y572D02*
X105Y572D01*
X198Y572D02*
X208Y572D01*
X526Y572D02*
X536Y572D01*
X997Y572D02*
X1004Y572D01*
X0Y571D02*
X7Y571D01*
X50Y571D02*
X56Y571D01*
X99Y571D02*
X105Y571D01*
X198Y571D02*
X207Y571D01*
X526Y571D02*
X536Y571D01*
X997Y571D02*
X1004Y571D01*
X0Y570D02*
X7Y570D01*
X50Y570D02*
X57Y570D01*
X99Y570D02*
X104Y570D01*
X197Y570D02*
X207Y570D01*
X527Y570D02*
X537Y570D01*
X997Y570D02*
X1004Y570D01*
X0Y569D02*
X7Y569D01*
X51Y569D02*
X57Y569D01*
X100Y569D02*
X103Y569D01*
X197Y569D02*
X207Y569D01*
X527Y569D02*
X537Y569D01*
X997Y569D02*
X1004Y569D01*
X0Y568D02*
X7Y568D01*
X51Y568D02*
X57Y568D01*
X196Y568D02*
X206Y568D01*
X528Y568D02*
X537Y568D01*
X997Y568D02*
X1004Y568D01*
X0Y567D02*
X7Y567D01*
X51Y567D02*
X57Y567D01*
X196Y567D02*
X206Y567D01*
X528Y567D02*
X538Y567D01*
X997Y567D02*
X1004Y567D01*
X0Y566D02*
X7Y566D01*
X51Y566D02*
X58Y566D01*
X196Y566D02*
X205Y566D01*
X528Y566D02*
X538Y566D01*
X997Y566D02*
X1004Y566D01*
X0Y565D02*
X7Y565D01*
X52Y565D02*
X58Y565D01*
X195Y565D02*
X205Y565D01*
X529Y565D02*
X538Y565D01*
X997Y565D02*
X1004Y565D01*
X0Y564D02*
X7Y564D01*
X52Y564D02*
X58Y564D01*
X195Y564D02*
X204Y564D01*
X529Y564D02*
X539Y564D01*
X997Y564D02*
X1004Y564D01*
X0Y563D02*
X7Y563D01*
X52Y563D02*
X58Y563D01*
X194Y563D02*
X204Y563D01*
X530Y563D02*
X539Y563D01*
X997Y563D02*
X1004Y563D01*
X0Y562D02*
X7Y562D01*
X52Y562D02*
X59Y562D01*
X194Y562D02*
X204Y562D01*
X530Y562D02*
X540Y562D01*
X997Y562D02*
X1004Y562D01*
X0Y561D02*
X7Y561D01*
X53Y561D02*
X59Y561D01*
X194Y561D02*
X203Y561D01*
X530Y561D02*
X540Y561D01*
X997Y561D02*
X1004Y561D01*
X0Y560D02*
X7Y560D01*
X53Y560D02*
X59Y560D01*
X193Y560D02*
X203Y560D01*
X531Y560D02*
X540Y560D01*
X997Y560D02*
X1004Y560D01*
X0Y559D02*
X7Y559D01*
X53Y559D02*
X59Y559D01*
X193Y559D02*
X203Y559D01*
X531Y559D02*
X541Y559D01*
X997Y559D02*
X1004Y559D01*
X0Y558D02*
X7Y558D01*
X54Y558D02*
X59Y558D01*
X193Y558D02*
X202Y558D01*
X531Y558D02*
X541Y558D01*
X997Y558D02*
X1004Y558D01*
X0Y557D02*
X7Y557D01*
X54Y557D02*
X59Y557D01*
X192Y557D02*
X202Y557D01*
X532Y557D02*
X541Y557D01*
X997Y557D02*
X1004Y557D01*
X0Y556D02*
X7Y556D01*
X56Y556D02*
X57Y556D01*
X192Y556D02*
X201Y556D01*
X532Y556D02*
X542Y556D01*
X997Y556D02*
X1004Y556D01*
X0Y555D02*
X7Y555D01*
X192Y555D02*
X201Y555D01*
X532Y555D02*
X542Y555D01*
X997Y555D02*
X1004Y555D01*
X0Y554D02*
X7Y554D01*
X191Y554D02*
X201Y554D01*
X533Y554D02*
X542Y554D01*
X997Y554D02*
X1004Y554D01*
X0Y553D02*
X7Y553D01*
X191Y553D02*
X200Y553D01*
X533Y553D02*
X543Y553D01*
X997Y553D02*
X1004Y553D01*
X0Y552D02*
X7Y552D01*
X191Y552D02*
X200Y552D01*
X533Y552D02*
X543Y552D01*
X997Y552D02*
X1004Y552D01*
X0Y551D02*
X7Y551D01*
X191Y551D02*
X200Y551D01*
X534Y551D02*
X543Y551D01*
X997Y551D02*
X1004Y551D01*
X0Y550D02*
X7Y550D01*
X190Y550D02*
X200Y550D01*
X534Y550D02*
X543Y550D01*
X997Y550D02*
X1004Y550D01*
X0Y549D02*
X7Y549D01*
X91Y549D02*
X95Y549D01*
X190Y549D02*
X199Y549D01*
X534Y549D02*
X544Y549D01*
X997Y549D02*
X1004Y549D01*
X0Y548D02*
X7Y548D01*
X87Y548D02*
X96Y548D01*
X190Y548D02*
X199Y548D01*
X535Y548D02*
X544Y548D01*
X997Y548D02*
X1004Y548D01*
X0Y547D02*
X7Y547D01*
X84Y547D02*
X97Y547D01*
X189Y547D02*
X199Y547D01*
X535Y547D02*
X544Y547D01*
X997Y547D02*
X1004Y547D01*
X0Y546D02*
X7Y546D01*
X80Y546D02*
X97Y546D01*
X189Y546D02*
X198Y546D01*
X535Y546D02*
X545Y546D01*
X997Y546D02*
X1004Y546D01*
X0Y545D02*
X7Y545D01*
X77Y545D02*
X96Y545D01*
X189Y545D02*
X198Y545D01*
X535Y545D02*
X545Y545D01*
X997Y545D02*
X1004Y545D01*
X0Y544D02*
X7Y544D01*
X73Y544D02*
X96Y544D01*
X189Y544D02*
X198Y544D01*
X536Y544D02*
X545Y544D01*
X997Y544D02*
X1004Y544D01*
X0Y543D02*
X7Y543D01*
X69Y543D02*
X94Y543D01*
X188Y543D02*
X198Y543D01*
X536Y543D02*
X545Y543D01*
X997Y543D02*
X1004Y543D01*
X0Y542D02*
X7Y542D01*
X66Y542D02*
X92Y542D01*
X188Y542D02*
X197Y542D01*
X536Y542D02*
X546Y542D01*
X997Y542D02*
X1004Y542D01*
X0Y541D02*
X7Y541D01*
X62Y541D02*
X93Y541D01*
X188Y541D02*
X197Y541D01*
X536Y541D02*
X546Y541D01*
X997Y541D02*
X1004Y541D01*
X0Y540D02*
X7Y540D01*
X61Y540D02*
X94Y540D01*
X188Y540D02*
X197Y540D01*
X537Y540D02*
X546Y540D01*
X997Y540D02*
X1004Y540D01*
X0Y539D02*
X7Y539D01*
X60Y539D02*
X80Y539D01*
X86Y539D02*
X95Y539D01*
X187Y539D02*
X197Y539D01*
X537Y539D02*
X546Y539D01*
X997Y539D02*
X1004Y539D01*
X0Y538D02*
X7Y538D01*
X60Y538D02*
X77Y538D01*
X87Y538D02*
X97Y538D01*
X187Y538D02*
X196Y538D01*
X537Y538D02*
X546Y538D01*
X997Y538D02*
X1004Y538D01*
X0Y537D02*
X7Y537D01*
X60Y537D02*
X73Y537D01*
X88Y537D02*
X98Y537D01*
X187Y537D02*
X196Y537D01*
X537Y537D02*
X547Y537D01*
X997Y537D02*
X1004Y537D01*
X0Y536D02*
X7Y536D01*
X60Y536D02*
X69Y536D01*
X89Y536D02*
X99Y536D01*
X187Y536D02*
X196Y536D01*
X538Y536D02*
X547Y536D01*
X997Y536D02*
X1004Y536D01*
X0Y535D02*
X7Y535D01*
X61Y535D02*
X66Y535D01*
X90Y535D02*
X99Y535D01*
X187Y535D02*
X196Y535D01*
X538Y535D02*
X547Y535D01*
X997Y535D02*
X1004Y535D01*
X0Y534D02*
X7Y534D01*
X91Y534D02*
X100Y534D01*
X186Y534D02*
X196Y534D01*
X538Y534D02*
X547Y534D01*
X997Y534D02*
X1004Y534D01*
X0Y533D02*
X7Y533D01*
X93Y533D02*
X100Y533D01*
X186Y533D02*
X195Y533D01*
X538Y533D02*
X547Y533D01*
X997Y533D02*
X1004Y533D01*
X0Y532D02*
X7Y532D01*
X94Y532D02*
X101Y532D01*
X186Y532D02*
X195Y532D01*
X538Y532D02*
X548Y532D01*
X997Y532D02*
X1004Y532D01*
X0Y531D02*
X7Y531D01*
X95Y531D02*
X101Y531D01*
X186Y531D02*
X195Y531D01*
X539Y531D02*
X548Y531D01*
X997Y531D02*
X1004Y531D01*
X0Y530D02*
X7Y530D01*
X95Y530D02*
X101Y530D01*
X186Y530D02*
X195Y530D01*
X539Y530D02*
X548Y530D01*
X997Y530D02*
X1004Y530D01*
X0Y529D02*
X7Y529D01*
X95Y529D02*
X102Y529D01*
X186Y529D02*
X195Y529D01*
X539Y529D02*
X548Y529D01*
X997Y529D02*
X1004Y529D01*
X0Y528D02*
X7Y528D01*
X96Y528D02*
X102Y528D01*
X185Y528D02*
X194Y528D01*
X539Y528D02*
X548Y528D01*
X997Y528D02*
X1004Y528D01*
X0Y527D02*
X7Y527D01*
X96Y527D02*
X102Y527D01*
X185Y527D02*
X194Y527D01*
X539Y527D02*
X548Y527D01*
X997Y527D02*
X1004Y527D01*
X0Y526D02*
X7Y526D01*
X96Y526D02*
X102Y526D01*
X185Y526D02*
X194Y526D01*
X539Y526D02*
X549Y526D01*
X997Y526D02*
X1004Y526D01*
X0Y525D02*
X7Y525D01*
X96Y525D02*
X102Y525D01*
X185Y525D02*
X194Y525D01*
X540Y525D02*
X549Y525D01*
X997Y525D02*
X1004Y525D01*
X0Y524D02*
X7Y524D01*
X96Y524D02*
X102Y524D01*
X185Y524D02*
X194Y524D01*
X540Y524D02*
X549Y524D01*
X997Y524D02*
X1004Y524D01*
X0Y523D02*
X7Y523D01*
X95Y523D02*
X102Y523D01*
X185Y523D02*
X194Y523D01*
X540Y523D02*
X549Y523D01*
X997Y523D02*
X1004Y523D01*
X0Y522D02*
X7Y522D01*
X93Y522D02*
X102Y522D01*
X185Y522D02*
X193Y522D01*
X540Y522D02*
X549Y522D01*
X997Y522D02*
X1004Y522D01*
X0Y521D02*
X7Y521D01*
X90Y521D02*
X101Y521D01*
X185Y521D02*
X193Y521D01*
X540Y521D02*
X549Y521D01*
X997Y521D02*
X1004Y521D01*
X0Y520D02*
X7Y520D01*
X87Y520D02*
X101Y520D01*
X184Y520D02*
X193Y520D01*
X540Y520D02*
X549Y520D01*
X997Y520D02*
X1004Y520D01*
X0Y519D02*
X7Y519D01*
X84Y519D02*
X100Y519D01*
X184Y519D02*
X193Y519D01*
X540Y519D02*
X549Y519D01*
X997Y519D02*
X1004Y519D01*
X0Y518D02*
X7Y518D01*
X81Y518D02*
X99Y518D01*
X184Y518D02*
X193Y518D01*
X541Y518D02*
X549Y518D01*
X997Y518D02*
X1004Y518D01*
X0Y517D02*
X7Y517D01*
X78Y517D02*
X98Y517D01*
X184Y517D02*
X193Y517D01*
X541Y517D02*
X550Y517D01*
X997Y517D02*
X1004Y517D01*
X0Y516D02*
X7Y516D01*
X75Y516D02*
X96Y516D01*
X184Y516D02*
X193Y516D01*
X541Y516D02*
X550Y516D01*
X997Y516D02*
X1004Y516D01*
X0Y515D02*
X7Y515D01*
X71Y515D02*
X94Y515D01*
X184Y515D02*
X193Y515D01*
X541Y515D02*
X550Y515D01*
X997Y515D02*
X1004Y515D01*
X0Y514D02*
X7Y514D01*
X69Y514D02*
X90Y514D01*
X184Y514D02*
X193Y514D01*
X541Y514D02*
X550Y514D01*
X997Y514D02*
X1004Y514D01*
X0Y513D02*
X7Y513D01*
X68Y513D02*
X87Y513D01*
X184Y513D02*
X193Y513D01*
X541Y513D02*
X550Y513D01*
X997Y513D02*
X1004Y513D01*
X0Y512D02*
X7Y512D01*
X67Y512D02*
X84Y512D01*
X184Y512D02*
X193Y512D01*
X541Y512D02*
X550Y512D01*
X997Y512D02*
X1004Y512D01*
X0Y511D02*
X7Y511D01*
X67Y511D02*
X81Y511D01*
X184Y511D02*
X192Y511D01*
X541Y511D02*
X550Y511D01*
X997Y511D02*
X1004Y511D01*
X0Y510D02*
X7Y510D01*
X67Y510D02*
X78Y510D01*
X184Y510D02*
X192Y510D01*
X541Y510D02*
X550Y510D01*
X997Y510D02*
X1004Y510D01*
X0Y509D02*
X7Y509D01*
X68Y509D02*
X74Y509D01*
X184Y509D02*
X192Y509D01*
X541Y509D02*
X550Y509D01*
X997Y509D02*
X1004Y509D01*
X0Y508D02*
X7Y508D01*
X69Y508D02*
X71Y508D01*
X183Y508D02*
X192Y508D01*
X541Y508D02*
X550Y508D01*
X997Y508D02*
X1004Y508D01*
X0Y507D02*
X7Y507D01*
X183Y507D02*
X192Y507D01*
X541Y507D02*
X550Y507D01*
X997Y507D02*
X1004Y507D01*
X0Y506D02*
X7Y506D01*
X183Y506D02*
X192Y506D01*
X541Y506D02*
X550Y506D01*
X997Y506D02*
X1004Y506D01*
X0Y505D02*
X7Y505D01*
X183Y505D02*
X192Y505D01*
X541Y505D02*
X550Y505D01*
X997Y505D02*
X1004Y505D01*
X0Y504D02*
X7Y504D01*
X183Y504D02*
X192Y504D01*
X542Y504D02*
X550Y504D01*
X997Y504D02*
X1004Y504D01*
X0Y503D02*
X7Y503D01*
X183Y503D02*
X192Y503D01*
X542Y503D02*
X550Y503D01*
X997Y503D02*
X1004Y503D01*
X0Y502D02*
X7Y502D01*
X183Y502D02*
X192Y502D01*
X542Y502D02*
X550Y502D01*
X997Y502D02*
X1004Y502D01*
X0Y501D02*
X7Y501D01*
X183Y501D02*
X192Y501D01*
X542Y501D02*
X550Y501D01*
X997Y501D02*
X1004Y501D01*
X0Y500D02*
X7Y500D01*
X183Y500D02*
X192Y500D01*
X542Y500D02*
X550Y500D01*
X997Y500D02*
X1004Y500D01*
X0Y499D02*
X7Y499D01*
X106Y499D02*
X110Y499D01*
X183Y499D02*
X192Y499D01*
X542Y499D02*
X550Y499D01*
X997Y499D02*
X1004Y499D01*
X0Y498D02*
X7Y498D01*
X105Y498D02*
X110Y498D01*
X183Y498D02*
X192Y498D01*
X542Y498D02*
X550Y498D01*
X997Y498D02*
X1004Y498D01*
X0Y497D02*
X7Y497D01*
X105Y497D02*
X111Y497D01*
X183Y497D02*
X192Y497D01*
X542Y497D02*
X550Y497D01*
X997Y497D02*
X1004Y497D01*
X0Y496D02*
X7Y496D01*
X105Y496D02*
X111Y496D01*
X183Y496D02*
X192Y496D01*
X542Y496D02*
X550Y496D01*
X997Y496D02*
X1004Y496D01*
X0Y495D02*
X7Y495D01*
X105Y495D02*
X111Y495D01*
X183Y495D02*
X192Y495D01*
X542Y495D02*
X550Y495D01*
X997Y495D02*
X1004Y495D01*
X0Y494D02*
X7Y494D01*
X105Y494D02*
X111Y494D01*
X183Y494D02*
X192Y494D01*
X541Y494D02*
X550Y494D01*
X997Y494D02*
X1004Y494D01*
X0Y493D02*
X7Y493D01*
X76Y493D02*
X80Y493D01*
X105Y493D02*
X112Y493D01*
X183Y493D02*
X192Y493D01*
X541Y493D02*
X550Y493D01*
X997Y493D02*
X1004Y493D01*
X0Y492D02*
X7Y492D01*
X74Y492D02*
X82Y492D01*
X106Y492D02*
X112Y492D01*
X183Y492D02*
X192Y492D01*
X541Y492D02*
X550Y492D01*
X997Y492D02*
X1004Y492D01*
X0Y491D02*
X7Y491D01*
X73Y491D02*
X84Y491D01*
X106Y491D02*
X112Y491D01*
X183Y491D02*
X192Y491D01*
X541Y491D02*
X550Y491D01*
X997Y491D02*
X1004Y491D01*
X0Y490D02*
X7Y490D01*
X73Y490D02*
X86Y490D01*
X106Y490D02*
X113Y490D01*
X184Y490D02*
X192Y490D01*
X541Y490D02*
X550Y490D01*
X997Y490D02*
X1004Y490D01*
X0Y489D02*
X7Y489D01*
X73Y489D02*
X87Y489D01*
X107Y489D02*
X113Y489D01*
X184Y489D02*
X192Y489D01*
X541Y489D02*
X550Y489D01*
X997Y489D02*
X1004Y489D01*
X0Y488D02*
X7Y488D01*
X73Y488D02*
X89Y488D01*
X107Y488D02*
X113Y488D01*
X184Y488D02*
X193Y488D01*
X541Y488D02*
X550Y488D01*
X997Y488D02*
X1004Y488D01*
X0Y487D02*
X7Y487D01*
X73Y487D02*
X91Y487D01*
X107Y487D02*
X113Y487D01*
X184Y487D02*
X193Y487D01*
X541Y487D02*
X550Y487D01*
X997Y487D02*
X1004Y487D01*
X0Y486D02*
X7Y486D01*
X74Y486D02*
X92Y486D01*
X107Y486D02*
X114Y486D01*
X184Y486D02*
X193Y486D01*
X541Y486D02*
X550Y486D01*
X997Y486D02*
X1004Y486D01*
X0Y485D02*
X7Y485D01*
X74Y485D02*
X94Y485D01*
X108Y485D02*
X114Y485D01*
X184Y485D02*
X193Y485D01*
X541Y485D02*
X550Y485D01*
X997Y485D02*
X1004Y485D01*
X0Y484D02*
X7Y484D01*
X74Y484D02*
X81Y484D01*
X83Y484D02*
X96Y484D01*
X108Y484D02*
X114Y484D01*
X184Y484D02*
X193Y484D01*
X541Y484D02*
X550Y484D01*
X997Y484D02*
X1004Y484D01*
X0Y483D02*
X7Y483D01*
X75Y483D02*
X81Y483D01*
X85Y483D02*
X97Y483D01*
X108Y483D02*
X115Y483D01*
X184Y483D02*
X193Y483D01*
X541Y483D02*
X550Y483D01*
X997Y483D02*
X1004Y483D01*
X0Y482D02*
X7Y482D01*
X75Y482D02*
X81Y482D01*
X86Y482D02*
X99Y482D01*
X109Y482D02*
X115Y482D01*
X184Y482D02*
X193Y482D01*
X541Y482D02*
X550Y482D01*
X997Y482D02*
X1004Y482D01*
X0Y481D02*
X7Y481D01*
X75Y481D02*
X81Y481D01*
X88Y481D02*
X101Y481D01*
X109Y481D02*
X115Y481D01*
X184Y481D02*
X193Y481D01*
X541Y481D02*
X549Y481D01*
X997Y481D02*
X1004Y481D01*
X0Y480D02*
X7Y480D01*
X75Y480D02*
X82Y480D01*
X90Y480D02*
X102Y480D01*
X109Y480D02*
X115Y480D01*
X184Y480D02*
X193Y480D01*
X540Y480D02*
X549Y480D01*
X997Y480D02*
X1004Y480D01*
X0Y479D02*
X7Y479D01*
X76Y479D02*
X82Y479D01*
X91Y479D02*
X104Y479D01*
X109Y479D02*
X116Y479D01*
X184Y479D02*
X193Y479D01*
X540Y479D02*
X549Y479D01*
X997Y479D02*
X1004Y479D01*
X0Y478D02*
X7Y478D01*
X76Y478D02*
X82Y478D01*
X93Y478D02*
X106Y478D01*
X110Y478D02*
X116Y478D01*
X185Y478D02*
X194Y478D01*
X540Y478D02*
X549Y478D01*
X997Y478D02*
X1004Y478D01*
X0Y477D02*
X7Y477D01*
X76Y477D02*
X83Y477D01*
X95Y477D02*
X108Y477D01*
X110Y477D02*
X116Y477D01*
X185Y477D02*
X194Y477D01*
X540Y477D02*
X549Y477D01*
X997Y477D02*
X1004Y477D01*
X0Y476D02*
X7Y476D01*
X77Y476D02*
X83Y476D01*
X97Y476D02*
X116Y476D01*
X185Y476D02*
X194Y476D01*
X540Y476D02*
X549Y476D01*
X997Y476D02*
X1004Y476D01*
X0Y475D02*
X7Y475D01*
X77Y475D02*
X83Y475D01*
X98Y475D02*
X117Y475D01*
X185Y475D02*
X194Y475D01*
X540Y475D02*
X549Y475D01*
X997Y475D02*
X1004Y475D01*
X0Y474D02*
X7Y474D01*
X77Y474D02*
X83Y474D01*
X100Y474D02*
X117Y474D01*
X185Y474D02*
X194Y474D01*
X540Y474D02*
X549Y474D01*
X997Y474D02*
X1004Y474D01*
X0Y473D02*
X7Y473D01*
X77Y473D02*
X84Y473D01*
X102Y473D02*
X117Y473D01*
X185Y473D02*
X194Y473D01*
X539Y473D02*
X548Y473D01*
X997Y473D02*
X1004Y473D01*
X0Y472D02*
X7Y472D01*
X78Y472D02*
X84Y472D01*
X103Y472D02*
X117Y472D01*
X185Y472D02*
X194Y472D01*
X539Y472D02*
X548Y472D01*
X997Y472D02*
X1004Y472D01*
X0Y471D02*
X7Y471D01*
X78Y471D02*
X84Y471D01*
X105Y471D02*
X117Y471D01*
X186Y471D02*
X195Y471D01*
X539Y471D02*
X548Y471D01*
X997Y471D02*
X1004Y471D01*
X0Y470D02*
X7Y470D01*
X78Y470D02*
X85Y470D01*
X107Y470D02*
X117Y470D01*
X186Y470D02*
X195Y470D01*
X539Y470D02*
X548Y470D01*
X997Y470D02*
X1004Y470D01*
X0Y469D02*
X7Y469D01*
X79Y469D02*
X85Y469D01*
X108Y469D02*
X116Y469D01*
X186Y469D02*
X195Y469D01*
X539Y469D02*
X548Y469D01*
X997Y469D02*
X1004Y469D01*
X0Y468D02*
X7Y468D01*
X79Y468D02*
X85Y468D01*
X110Y468D02*
X114Y468D01*
X186Y468D02*
X195Y468D01*
X539Y468D02*
X548Y468D01*
X997Y468D02*
X1004Y468D01*
X0Y467D02*
X7Y467D01*
X79Y467D02*
X85Y467D01*
X186Y467D02*
X195Y467D01*
X538Y467D02*
X547Y467D01*
X997Y467D02*
X1004Y467D01*
X0Y466D02*
X7Y466D01*
X79Y466D02*
X86Y466D01*
X186Y466D02*
X196Y466D01*
X538Y466D02*
X547Y466D01*
X997Y466D02*
X1004Y466D01*
X0Y465D02*
X7Y465D01*
X80Y465D02*
X86Y465D01*
X187Y465D02*
X196Y465D01*
X538Y465D02*
X547Y465D01*
X997Y465D02*
X1004Y465D01*
X0Y464D02*
X7Y464D01*
X80Y464D02*
X86Y464D01*
X187Y464D02*
X196Y464D01*
X538Y464D02*
X547Y464D01*
X997Y464D02*
X1004Y464D01*
X0Y463D02*
X7Y463D01*
X80Y463D02*
X86Y463D01*
X187Y463D02*
X196Y463D01*
X538Y463D02*
X547Y463D01*
X997Y463D02*
X1004Y463D01*
X0Y462D02*
X7Y462D01*
X80Y462D02*
X86Y462D01*
X187Y462D02*
X196Y462D01*
X537Y462D02*
X546Y462D01*
X997Y462D02*
X1004Y462D01*
X0Y461D02*
X7Y461D01*
X81Y461D02*
X86Y461D01*
X187Y461D02*
X197Y461D01*
X537Y461D02*
X546Y461D01*
X997Y461D02*
X1004Y461D01*
X0Y460D02*
X7Y460D01*
X82Y460D02*
X85Y460D01*
X188Y460D02*
X197Y460D01*
X537Y460D02*
X546Y460D01*
X997Y460D02*
X1004Y460D01*
X0Y459D02*
X7Y459D01*
X188Y459D02*
X197Y459D01*
X537Y459D02*
X546Y459D01*
X997Y459D02*
X1004Y459D01*
X0Y458D02*
X7Y458D01*
X188Y458D02*
X197Y458D01*
X536Y458D02*
X546Y458D01*
X997Y458D02*
X1004Y458D01*
X0Y457D02*
X7Y457D01*
X188Y457D02*
X198Y457D01*
X536Y457D02*
X545Y457D01*
X997Y457D02*
X1004Y457D01*
X0Y456D02*
X7Y456D01*
X189Y456D02*
X198Y456D01*
X536Y456D02*
X545Y456D01*
X997Y456D02*
X1004Y456D01*
X0Y455D02*
X7Y455D01*
X189Y455D02*
X198Y455D01*
X536Y455D02*
X545Y455D01*
X997Y455D02*
X1004Y455D01*
X0Y454D02*
X7Y454D01*
X189Y454D02*
X198Y454D01*
X535Y454D02*
X545Y454D01*
X997Y454D02*
X1004Y454D01*
X0Y453D02*
X7Y453D01*
X189Y453D02*
X199Y453D01*
X535Y453D02*
X544Y453D01*
X997Y453D02*
X1004Y453D01*
X0Y452D02*
X7Y452D01*
X190Y452D02*
X199Y452D01*
X535Y452D02*
X544Y452D01*
X997Y452D02*
X1004Y452D01*
X0Y451D02*
X7Y451D01*
X112Y451D02*
X115Y451D01*
X190Y451D02*
X199Y451D01*
X535Y451D02*
X544Y451D01*
X997Y451D02*
X1004Y451D01*
X0Y450D02*
X7Y450D01*
X108Y450D02*
X118Y450D01*
X190Y450D02*
X199Y450D01*
X534Y450D02*
X544Y450D01*
X997Y450D02*
X1004Y450D01*
X0Y449D02*
X7Y449D01*
X105Y449D02*
X120Y449D01*
X190Y449D02*
X200Y449D01*
X534Y449D02*
X543Y449D01*
X997Y449D02*
X1004Y449D01*
X0Y448D02*
X7Y448D01*
X101Y448D02*
X121Y448D01*
X191Y448D02*
X200Y448D01*
X534Y448D02*
X543Y448D01*
X997Y448D02*
X1004Y448D01*
X0Y447D02*
X7Y447D01*
X97Y447D02*
X123Y447D01*
X191Y447D02*
X200Y447D01*
X533Y447D02*
X543Y447D01*
X997Y447D02*
X1004Y447D01*
X0Y446D02*
X7Y446D01*
X95Y446D02*
X124Y446D01*
X191Y446D02*
X201Y446D01*
X533Y446D02*
X542Y446D01*
X997Y446D02*
X1004Y446D01*
X0Y445D02*
X7Y445D01*
X94Y445D02*
X125Y445D01*
X192Y445D02*
X201Y445D01*
X533Y445D02*
X542Y445D01*
X997Y445D02*
X1004Y445D01*
X0Y444D02*
X7Y444D01*
X93Y444D02*
X112Y444D01*
X116Y444D02*
X125Y444D01*
X192Y444D02*
X201Y444D01*
X532Y444D02*
X542Y444D01*
X997Y444D02*
X1004Y444D01*
X0Y443D02*
X7Y443D01*
X92Y443D02*
X108Y443D01*
X117Y443D02*
X126Y443D01*
X192Y443D02*
X202Y443D01*
X532Y443D02*
X541Y443D01*
X997Y443D02*
X1004Y443D01*
X0Y442D02*
X7Y442D01*
X91Y442D02*
X105Y442D01*
X119Y442D02*
X126Y442D01*
X193Y442D02*
X202Y442D01*
X532Y442D02*
X541Y442D01*
X997Y442D02*
X1004Y442D01*
X0Y441D02*
X7Y441D01*
X91Y441D02*
X101Y441D01*
X120Y441D02*
X126Y441D01*
X193Y441D02*
X202Y441D01*
X531Y441D02*
X541Y441D01*
X997Y441D02*
X1004Y441D01*
X0Y440D02*
X7Y440D01*
X90Y440D02*
X98Y440D01*
X120Y440D02*
X127Y440D01*
X193Y440D02*
X203Y440D01*
X531Y440D02*
X540Y440D01*
X997Y440D02*
X1004Y440D01*
X0Y439D02*
X7Y439D01*
X90Y439D02*
X97Y439D01*
X121Y439D02*
X127Y439D01*
X194Y439D02*
X203Y439D01*
X531Y439D02*
X540Y439D01*
X997Y439D02*
X1004Y439D01*
X0Y438D02*
X7Y438D01*
X89Y438D02*
X96Y438D01*
X121Y438D02*
X127Y438D01*
X194Y438D02*
X204Y438D01*
X530Y438D02*
X540Y438D01*
X997Y438D02*
X1004Y438D01*
X0Y437D02*
X7Y437D01*
X89Y437D02*
X96Y437D01*
X121Y437D02*
X127Y437D01*
X194Y437D02*
X204Y437D01*
X530Y437D02*
X539Y437D01*
X997Y437D02*
X1004Y437D01*
X0Y436D02*
X7Y436D01*
X89Y436D02*
X95Y436D01*
X121Y436D02*
X128Y436D01*
X195Y436D02*
X204Y436D01*
X529Y436D02*
X539Y436D01*
X997Y436D02*
X1004Y436D01*
X0Y435D02*
X7Y435D01*
X89Y435D02*
X95Y435D01*
X122Y435D02*
X128Y435D01*
X195Y435D02*
X205Y435D01*
X529Y435D02*
X539Y435D01*
X997Y435D02*
X1004Y435D01*
X0Y434D02*
X7Y434D01*
X89Y434D02*
X95Y434D01*
X122Y434D02*
X128Y434D01*
X195Y434D02*
X205Y434D01*
X529Y434D02*
X538Y434D01*
X997Y434D02*
X1004Y434D01*
X0Y433D02*
X7Y433D01*
X89Y433D02*
X95Y433D01*
X122Y433D02*
X128Y433D01*
X196Y433D02*
X205Y433D01*
X528Y433D02*
X538Y433D01*
X997Y433D02*
X1004Y433D01*
X0Y432D02*
X7Y432D01*
X89Y432D02*
X95Y432D01*
X123Y432D02*
X129Y432D01*
X196Y432D02*
X206Y432D01*
X528Y432D02*
X537Y432D01*
X997Y432D02*
X1004Y432D01*
X0Y431D02*
X7Y431D01*
X89Y431D02*
X95Y431D01*
X123Y431D02*
X129Y431D01*
X197Y431D02*
X206Y431D01*
X527Y431D02*
X537Y431D01*
X997Y431D02*
X1004Y431D01*
X0Y430D02*
X7Y430D01*
X89Y430D02*
X96Y430D01*
X123Y430D02*
X129Y430D01*
X197Y430D02*
X207Y430D01*
X527Y430D02*
X537Y430D01*
X997Y430D02*
X1004Y430D01*
X0Y429D02*
X7Y429D01*
X90Y429D02*
X96Y429D01*
X122Y429D02*
X129Y429D01*
X197Y429D02*
X207Y429D01*
X526Y429D02*
X536Y429D01*
X997Y429D02*
X1004Y429D01*
X0Y428D02*
X7Y428D01*
X90Y428D02*
X96Y428D01*
X122Y428D02*
X128Y428D01*
X198Y428D02*
X208Y428D01*
X526Y428D02*
X536Y428D01*
X997Y428D02*
X1004Y428D01*
X0Y427D02*
X7Y427D01*
X90Y427D02*
X97Y427D01*
X122Y427D02*
X128Y427D01*
X198Y427D02*
X208Y427D01*
X526Y427D02*
X535Y427D01*
X997Y427D02*
X1004Y427D01*
X0Y426D02*
X7Y426D01*
X91Y426D02*
X97Y426D01*
X121Y426D02*
X128Y426D01*
X199Y426D02*
X209Y426D01*
X525Y426D02*
X535Y426D01*
X997Y426D02*
X1004Y426D01*
X0Y425D02*
X7Y425D01*
X91Y425D02*
X97Y425D01*
X120Y425D02*
X127Y425D01*
X199Y425D02*
X209Y425D01*
X525Y425D02*
X535Y425D01*
X997Y425D02*
X1004Y425D01*
X0Y424D02*
X7Y424D01*
X91Y424D02*
X98Y424D01*
X117Y424D02*
X127Y424D01*
X200Y424D02*
X209Y424D01*
X524Y424D02*
X534Y424D01*
X997Y424D02*
X1004Y424D01*
X0Y423D02*
X7Y423D01*
X91Y423D02*
X98Y423D01*
X114Y423D02*
X126Y423D01*
X200Y423D02*
X210Y423D01*
X524Y423D02*
X534Y423D01*
X997Y423D02*
X1004Y423D01*
X0Y422D02*
X7Y422D01*
X92Y422D02*
X100Y422D01*
X110Y422D02*
X126Y422D01*
X200Y422D02*
X210Y422D01*
X523Y422D02*
X533Y422D01*
X997Y422D02*
X1004Y422D01*
X0Y421D02*
X7Y421D01*
X92Y421D02*
X101Y421D01*
X107Y421D02*
X125Y421D01*
X201Y421D02*
X211Y421D01*
X523Y421D02*
X533Y421D01*
X997Y421D02*
X1004Y421D01*
X0Y420D02*
X7Y420D01*
X93Y420D02*
X124Y420D01*
X201Y420D02*
X211Y420D01*
X522Y420D02*
X532Y420D01*
X997Y420D02*
X1004Y420D01*
X0Y419D02*
X7Y419D01*
X94Y419D02*
X123Y419D01*
X202Y419D02*
X212Y419D01*
X522Y419D02*
X532Y419D01*
X997Y419D02*
X1004Y419D01*
X0Y418D02*
X7Y418D01*
X94Y418D02*
X121Y418D01*
X202Y418D02*
X212Y418D01*
X521Y418D02*
X531Y418D01*
X997Y418D02*
X1004Y418D01*
X0Y417D02*
X7Y417D01*
X96Y417D02*
X117Y417D01*
X203Y417D02*
X213Y417D01*
X521Y417D02*
X531Y417D01*
X997Y417D02*
X1004Y417D01*
X0Y416D02*
X7Y416D01*
X97Y416D02*
X114Y416D01*
X203Y416D02*
X214Y416D01*
X520Y416D02*
X530Y416D01*
X997Y416D02*
X1004Y416D01*
X0Y415D02*
X7Y415D01*
X99Y415D02*
X110Y415D01*
X204Y415D02*
X214Y415D01*
X519Y415D02*
X530Y415D01*
X997Y415D02*
X1004Y415D01*
X0Y414D02*
X7Y414D01*
X101Y414D02*
X107Y414D01*
X204Y414D02*
X215Y414D01*
X519Y414D02*
X529Y414D01*
X997Y414D02*
X1004Y414D01*
X0Y413D02*
X7Y413D01*
X205Y413D02*
X215Y413D01*
X518Y413D02*
X529Y413D01*
X997Y413D02*
X1004Y413D01*
X0Y412D02*
X7Y412D01*
X206Y412D02*
X216Y412D01*
X518Y412D02*
X528Y412D01*
X997Y412D02*
X1004Y412D01*
X0Y411D02*
X7Y411D01*
X206Y411D02*
X216Y411D01*
X517Y411D02*
X528Y411D01*
X997Y411D02*
X1004Y411D01*
X0Y410D02*
X7Y410D01*
X207Y410D02*
X217Y410D01*
X517Y410D02*
X527Y410D01*
X997Y410D02*
X1004Y410D01*
X0Y409D02*
X7Y409D01*
X147Y409D02*
X149Y409D01*
X207Y409D02*
X218Y409D01*
X516Y409D02*
X527Y409D01*
X997Y409D02*
X1004Y409D01*
X0Y408D02*
X7Y408D01*
X146Y408D02*
X150Y408D01*
X208Y408D02*
X218Y408D01*
X515Y408D02*
X526Y408D01*
X997Y408D02*
X1004Y408D01*
X0Y407D02*
X7Y407D01*
X146Y407D02*
X151Y407D01*
X208Y407D02*
X219Y407D01*
X515Y407D02*
X525Y407D01*
X997Y407D02*
X1004Y407D01*
X0Y406D02*
X7Y406D01*
X145Y406D02*
X151Y406D01*
X209Y406D02*
X219Y406D01*
X514Y406D02*
X525Y406D01*
X997Y406D02*
X1004Y406D01*
X0Y405D02*
X7Y405D01*
X145Y405D02*
X152Y405D01*
X210Y405D02*
X220Y405D01*
X513Y405D02*
X524Y405D01*
X997Y405D02*
X1004Y405D01*
X0Y404D02*
X7Y404D01*
X146Y404D02*
X152Y404D01*
X210Y404D02*
X221Y404D01*
X513Y404D02*
X524Y404D01*
X997Y404D02*
X1004Y404D01*
X0Y403D02*
X7Y403D01*
X146Y403D02*
X152Y403D01*
X211Y403D02*
X221Y403D01*
X512Y403D02*
X523Y403D01*
X997Y403D02*
X1004Y403D01*
X0Y402D02*
X7Y402D01*
X146Y402D02*
X152Y402D01*
X211Y402D02*
X222Y402D01*
X511Y402D02*
X522Y402D01*
X997Y402D02*
X1004Y402D01*
X0Y401D02*
X7Y401D01*
X146Y401D02*
X153Y401D01*
X212Y401D02*
X223Y401D01*
X511Y401D02*
X522Y401D01*
X997Y401D02*
X1004Y401D01*
X0Y400D02*
X7Y400D01*
X147Y400D02*
X153Y400D01*
X213Y400D02*
X223Y400D01*
X510Y400D02*
X521Y400D01*
X997Y400D02*
X1004Y400D01*
X0Y399D02*
X7Y399D01*
X147Y399D02*
X153Y399D01*
X213Y399D02*
X224Y399D01*
X509Y399D02*
X520Y399D01*
X997Y399D02*
X1004Y399D01*
X0Y398D02*
X7Y398D01*
X147Y398D02*
X154Y398D01*
X214Y398D02*
X225Y398D01*
X509Y398D02*
X520Y398D01*
X997Y398D02*
X1004Y398D01*
X0Y397D02*
X7Y397D01*
X148Y397D02*
X154Y397D01*
X215Y397D02*
X226Y397D01*
X508Y397D02*
X519Y397D01*
X997Y397D02*
X1004Y397D01*
X0Y396D02*
X7Y396D01*
X102Y396D02*
X104Y396D01*
X148Y396D02*
X154Y396D01*
X215Y396D02*
X226Y396D01*
X445Y396D02*
X472Y396D01*
X507Y396D02*
X518Y396D01*
X997Y396D02*
X1004Y396D01*
X0Y395D02*
X7Y395D01*
X100Y395D02*
X105Y395D01*
X148Y395D02*
X154Y395D01*
X216Y395D02*
X227Y395D01*
X444Y395D02*
X474Y395D01*
X506Y395D02*
X518Y395D01*
X997Y395D02*
X1004Y395D01*
X0Y394D02*
X7Y394D01*
X100Y394D02*
X106Y394D01*
X144Y394D02*
X155Y394D01*
X217Y394D02*
X228Y394D01*
X444Y394D02*
X475Y394D01*
X506Y394D02*
X517Y394D01*
X997Y394D02*
X1004Y394D01*
X0Y393D02*
X7Y393D01*
X100Y393D02*
X106Y393D01*
X141Y393D02*
X155Y393D01*
X217Y393D02*
X229Y393D01*
X443Y393D02*
X476Y393D01*
X505Y393D02*
X516Y393D01*
X997Y393D02*
X1004Y393D01*
X0Y392D02*
X7Y392D01*
X100Y392D02*
X106Y392D01*
X137Y392D02*
X155Y392D01*
X218Y392D02*
X229Y392D01*
X444Y392D02*
X476Y392D01*
X504Y392D02*
X516Y392D01*
X997Y392D02*
X1004Y392D01*
X0Y391D02*
X7Y391D01*
X100Y391D02*
X107Y391D01*
X134Y391D02*
X156Y391D01*
X219Y391D02*
X230Y391D01*
X444Y391D02*
X477Y391D01*
X503Y391D02*
X515Y391D01*
X997Y391D02*
X1004Y391D01*
X0Y390D02*
X7Y390D01*
X101Y390D02*
X107Y390D01*
X130Y390D02*
X155Y390D01*
X445Y390D02*
X477Y390D01*
X503Y390D02*
X514Y390D01*
X997Y390D02*
X1004Y390D01*
X0Y389D02*
X7Y389D01*
X101Y389D02*
X107Y389D01*
X127Y389D02*
X152Y389D01*
X471Y389D02*
X477Y389D01*
X502Y389D02*
X513Y389D01*
X997Y389D02*
X1004Y389D01*
X0Y388D02*
X7Y388D01*
X101Y388D02*
X107Y388D01*
X123Y388D02*
X148Y388D01*
X471Y388D02*
X477Y388D01*
X501Y388D02*
X513Y388D01*
X997Y388D02*
X1004Y388D01*
X0Y387D02*
X7Y387D01*
X101Y387D02*
X108Y387D01*
X119Y387D02*
X144Y387D01*
X471Y387D02*
X477Y387D01*
X500Y387D02*
X512Y387D01*
X997Y387D02*
X1004Y387D01*
X0Y386D02*
X7Y386D01*
X102Y386D02*
X108Y386D01*
X116Y386D02*
X141Y386D01*
X471Y386D02*
X477Y386D01*
X499Y386D02*
X511Y386D01*
X997Y386D02*
X1004Y386D01*
X0Y385D02*
X7Y385D01*
X102Y385D02*
X108Y385D01*
X112Y385D02*
X137Y385D01*
X471Y385D02*
X477Y385D01*
X498Y385D02*
X510Y385D01*
X997Y385D02*
X1004Y385D01*
X0Y384D02*
X7Y384D01*
X102Y384D02*
X134Y384D01*
X471Y384D02*
X477Y384D01*
X498Y384D02*
X509Y384D01*
X997Y384D02*
X1004Y384D01*
X0Y383D02*
X7Y383D01*
X103Y383D02*
X130Y383D01*
X471Y383D02*
X477Y383D01*
X497Y383D02*
X509Y383D01*
X997Y383D02*
X1004Y383D01*
X0Y382D02*
X7Y382D01*
X103Y382D02*
X127Y382D01*
X471Y382D02*
X477Y382D01*
X496Y382D02*
X508Y382D01*
X997Y382D02*
X1004Y382D01*
X0Y381D02*
X7Y381D01*
X103Y381D02*
X123Y381D01*
X471Y381D02*
X477Y381D01*
X495Y381D02*
X507Y381D01*
X997Y381D02*
X1004Y381D01*
X0Y380D02*
X7Y380D01*
X103Y380D02*
X120Y380D01*
X471Y380D02*
X477Y380D01*
X494Y380D02*
X506Y380D01*
X997Y380D02*
X1004Y380D01*
X0Y379D02*
X7Y379D01*
X104Y379D02*
X116Y379D01*
X471Y379D02*
X477Y379D01*
X493Y379D02*
X505Y379D01*
X997Y379D02*
X1004Y379D01*
X0Y378D02*
X7Y378D01*
X104Y378D02*
X112Y378D01*
X471Y378D02*
X477Y378D01*
X492Y378D02*
X504Y378D01*
X997Y378D02*
X1004Y378D01*
X0Y377D02*
X7Y377D01*
X104Y377D02*
X111Y377D01*
X471Y377D02*
X477Y377D01*
X491Y377D02*
X504Y377D01*
X997Y377D02*
X1004Y377D01*
X0Y376D02*
X7Y376D01*
X105Y376D02*
X111Y376D01*
X471Y376D02*
X477Y376D01*
X490Y376D02*
X503Y376D01*
X997Y376D02*
X1004Y376D01*
X0Y375D02*
X7Y375D01*
X105Y375D02*
X111Y375D01*
X471Y375D02*
X477Y375D01*
X489Y375D02*
X502Y375D01*
X997Y375D02*
X1004Y375D01*
X0Y374D02*
X7Y374D01*
X105Y374D02*
X111Y374D01*
X124Y374D02*
X129Y374D01*
X471Y374D02*
X477Y374D01*
X488Y374D02*
X501Y374D01*
X997Y374D02*
X1004Y374D01*
X0Y373D02*
X7Y373D01*
X105Y373D02*
X112Y373D01*
X121Y373D02*
X130Y373D01*
X471Y373D02*
X477Y373D01*
X487Y373D02*
X500Y373D01*
X997Y373D02*
X1004Y373D01*
X0Y372D02*
X7Y372D01*
X106Y372D02*
X112Y372D01*
X117Y372D02*
X130Y372D01*
X447Y372D02*
X477Y372D01*
X486Y372D02*
X499Y372D01*
X997Y372D02*
X1004Y372D01*
X0Y371D02*
X7Y371D01*
X106Y371D02*
X130Y371D01*
X446Y371D02*
X477Y371D01*
X485Y371D02*
X498Y371D01*
X997Y371D02*
X1004Y371D01*
X0Y370D02*
X7Y370D01*
X106Y370D02*
X130Y370D01*
X445Y370D02*
X476Y370D01*
X484Y370D02*
X497Y370D01*
X997Y370D02*
X1004Y370D01*
X0Y369D02*
X7Y369D01*
X106Y369D02*
X129Y369D01*
X444Y369D02*
X476Y369D01*
X483Y369D02*
X496Y369D01*
X997Y369D02*
X1004Y369D01*
X0Y368D02*
X7Y368D01*
X107Y368D02*
X128Y368D01*
X444Y368D02*
X475Y368D01*
X481Y368D02*
X495Y368D01*
X997Y368D02*
X1004Y368D01*
X0Y367D02*
X7Y367D01*
X107Y367D02*
X124Y367D01*
X444Y367D02*
X474Y367D01*
X480Y367D02*
X494Y367D01*
X997Y367D02*
X1004Y367D01*
X0Y366D02*
X7Y366D01*
X107Y366D02*
X121Y366D01*
X415Y366D02*
X416Y366D01*
X443Y366D02*
X471Y366D01*
X479Y366D02*
X493Y366D01*
X997Y366D02*
X1004Y366D01*
X0Y365D02*
X7Y365D01*
X108Y365D02*
X117Y365D01*
X413Y365D02*
X416Y365D01*
X443Y365D02*
X449Y365D01*
X478Y365D02*
X492Y365D01*
X997Y365D02*
X1004Y365D01*
X0Y364D02*
X7Y364D01*
X109Y364D02*
X114Y364D01*
X411Y364D02*
X417Y364D01*
X443Y364D02*
X449Y364D01*
X477Y364D02*
X491Y364D01*
X997Y364D02*
X1004Y364D01*
X0Y363D02*
X7Y363D01*
X410Y363D02*
X418Y363D01*
X443Y363D02*
X449Y363D01*
X475Y363D02*
X490Y363D01*
X997Y363D02*
X1004Y363D01*
X0Y362D02*
X7Y362D01*
X411Y362D02*
X418Y362D01*
X443Y362D02*
X449Y362D01*
X474Y362D02*
X488Y362D01*
X997Y362D02*
X1004Y362D01*
X0Y361D02*
X7Y361D01*
X400Y361D02*
X400Y361D01*
X412Y361D02*
X419Y361D01*
X443Y361D02*
X449Y361D01*
X473Y361D02*
X487Y361D01*
X997Y361D02*
X1004Y361D01*
X0Y360D02*
X7Y360D01*
X393Y360D02*
X400Y360D01*
X412Y360D02*
X419Y360D01*
X443Y360D02*
X449Y360D01*
X471Y360D02*
X486Y360D01*
X997Y360D02*
X1004Y360D01*
X0Y359D02*
X7Y359D01*
X393Y359D02*
X400Y359D01*
X413Y359D02*
X420Y359D01*
X443Y359D02*
X449Y359D01*
X470Y359D02*
X485Y359D01*
X997Y359D02*
X1004Y359D01*
X0Y358D02*
X7Y358D01*
X393Y358D02*
X400Y358D01*
X413Y358D02*
X420Y358D01*
X443Y358D02*
X449Y358D01*
X469Y358D02*
X484Y358D01*
X997Y358D02*
X1004Y358D01*
X0Y357D02*
X7Y357D01*
X393Y357D02*
X400Y357D01*
X414Y357D02*
X421Y357D01*
X443Y357D02*
X449Y357D01*
X467Y357D02*
X483Y357D01*
X997Y357D02*
X1004Y357D01*
X0Y356D02*
X7Y356D01*
X393Y356D02*
X400Y356D01*
X414Y356D02*
X422Y356D01*
X443Y356D02*
X449Y356D01*
X466Y356D02*
X481Y356D01*
X997Y356D02*
X1004Y356D01*
X0Y355D02*
X7Y355D01*
X393Y355D02*
X400Y355D01*
X415Y355D02*
X422Y355D01*
X443Y355D02*
X449Y355D01*
X464Y355D02*
X480Y355D01*
X997Y355D02*
X1004Y355D01*
X0Y354D02*
X7Y354D01*
X393Y354D02*
X400Y354D01*
X416Y354D02*
X423Y354D01*
X443Y354D02*
X449Y354D01*
X463Y354D02*
X479Y354D01*
X997Y354D02*
X1004Y354D01*
X0Y353D02*
X7Y353D01*
X393Y353D02*
X400Y353D01*
X416Y353D02*
X423Y353D01*
X443Y353D02*
X449Y353D01*
X461Y353D02*
X477Y353D01*
X543Y353D02*
X544Y353D01*
X571Y353D02*
X595Y353D01*
X997Y353D02*
X1004Y353D01*
X0Y352D02*
X7Y352D01*
X393Y352D02*
X400Y352D01*
X417Y352D02*
X424Y352D01*
X443Y352D02*
X449Y352D01*
X460Y352D02*
X476Y352D01*
X540Y352D02*
X547Y352D01*
X569Y352D02*
X598Y352D01*
X997Y352D02*
X1004Y352D01*
X0Y351D02*
X7Y351D01*
X393Y351D02*
X400Y351D01*
X417Y351D02*
X425Y351D01*
X443Y351D02*
X449Y351D01*
X458Y351D02*
X475Y351D01*
X538Y351D02*
X548Y351D01*
X568Y351D02*
X599Y351D01*
X997Y351D02*
X1004Y351D01*
X0Y350D02*
X7Y350D01*
X393Y350D02*
X400Y350D01*
X418Y350D02*
X425Y350D01*
X443Y350D02*
X449Y350D01*
X457Y350D02*
X473Y350D01*
X537Y350D02*
X549Y350D01*
X568Y350D02*
X600Y350D01*
X997Y350D02*
X1004Y350D01*
X0Y349D02*
X7Y349D01*
X393Y349D02*
X400Y349D01*
X419Y349D02*
X426Y349D01*
X443Y349D02*
X475Y349D01*
X536Y349D02*
X550Y349D01*
X568Y349D02*
X601Y349D01*
X997Y349D02*
X1004Y349D01*
X0Y348D02*
X7Y348D01*
X393Y348D02*
X400Y348D01*
X419Y348D02*
X426Y348D01*
X443Y348D02*
X476Y348D01*
X535Y348D02*
X551Y348D01*
X568Y348D02*
X601Y348D01*
X997Y348D02*
X1004Y348D01*
X0Y347D02*
X7Y347D01*
X393Y347D02*
X400Y347D01*
X420Y347D02*
X427Y347D01*
X443Y347D02*
X477Y347D01*
X533Y347D02*
X551Y347D01*
X569Y347D02*
X601Y347D01*
X997Y347D02*
X1004Y347D01*
X0Y346D02*
X7Y346D01*
X393Y346D02*
X399Y346D01*
X420Y346D02*
X427Y346D01*
X443Y346D02*
X477Y346D01*
X532Y346D02*
X551Y346D01*
X595Y346D02*
X601Y346D01*
X997Y346D02*
X1004Y346D01*
X0Y345D02*
X7Y345D01*
X394Y345D02*
X399Y345D01*
X421Y345D02*
X427Y345D01*
X443Y345D02*
X477Y345D01*
X531Y345D02*
X541Y345D01*
X545Y345D02*
X551Y345D01*
X595Y345D02*
X601Y345D01*
X997Y345D02*
X1004Y345D01*
X0Y344D02*
X7Y344D01*
X394Y344D02*
X399Y344D01*
X421Y344D02*
X426Y344D01*
X443Y344D02*
X476Y344D01*
X530Y344D02*
X540Y344D01*
X545Y344D02*
X551Y344D01*
X595Y344D02*
X601Y344D01*
X997Y344D02*
X1004Y344D01*
X0Y343D02*
X7Y343D01*
X395Y343D02*
X398Y343D01*
X422Y343D02*
X426Y343D01*
X443Y343D02*
X476Y343D01*
X529Y343D02*
X539Y343D01*
X545Y343D02*
X551Y343D01*
X595Y343D02*
X601Y343D01*
X997Y343D02*
X1004Y343D01*
X0Y342D02*
X7Y342D01*
X441Y342D02*
X461Y342D01*
X528Y342D02*
X537Y342D01*
X545Y342D02*
X551Y342D01*
X595Y342D02*
X601Y342D01*
X997Y342D02*
X1004Y342D01*
X0Y341D02*
X7Y341D01*
X439Y341D02*
X460Y341D01*
X526Y341D02*
X536Y341D01*
X545Y341D02*
X551Y341D01*
X595Y341D02*
X601Y341D01*
X997Y341D02*
X1004Y341D01*
X0Y340D02*
X7Y340D01*
X437Y340D02*
X458Y340D01*
X525Y340D02*
X535Y340D01*
X545Y340D02*
X551Y340D01*
X595Y340D02*
X601Y340D01*
X997Y340D02*
X1004Y340D01*
X0Y339D02*
X7Y339D01*
X434Y339D02*
X456Y339D01*
X524Y339D02*
X534Y339D01*
X545Y339D02*
X551Y339D01*
X595Y339D02*
X601Y339D01*
X997Y339D02*
X1004Y339D01*
X0Y338D02*
X7Y338D01*
X432Y338D02*
X454Y338D01*
X523Y338D02*
X533Y338D01*
X545Y338D02*
X551Y338D01*
X595Y338D02*
X601Y338D01*
X997Y338D02*
X1004Y338D01*
X0Y337D02*
X7Y337D01*
X429Y337D02*
X453Y337D01*
X522Y337D02*
X532Y337D01*
X545Y337D02*
X551Y337D01*
X595Y337D02*
X601Y337D01*
X997Y337D02*
X1004Y337D01*
X0Y336D02*
X7Y336D01*
X427Y336D02*
X451Y336D01*
X521Y336D02*
X530Y336D01*
X545Y336D02*
X551Y336D01*
X595Y336D02*
X601Y336D01*
X997Y336D02*
X1004Y336D01*
X0Y335D02*
X7Y335D01*
X424Y335D02*
X449Y335D01*
X520Y335D02*
X529Y335D01*
X545Y335D02*
X551Y335D01*
X595Y335D02*
X601Y335D01*
X997Y335D02*
X1004Y335D01*
X0Y334D02*
X7Y334D01*
X421Y334D02*
X447Y334D01*
X520Y334D02*
X528Y334D01*
X545Y334D02*
X551Y334D01*
X595Y334D02*
X601Y334D01*
X997Y334D02*
X1004Y334D01*
X0Y333D02*
X7Y333D01*
X418Y333D02*
X445Y333D01*
X519Y333D02*
X527Y333D01*
X545Y333D02*
X551Y333D01*
X595Y333D02*
X601Y333D01*
X997Y333D02*
X1004Y333D01*
X0Y332D02*
X7Y332D01*
X414Y332D02*
X442Y332D01*
X519Y332D02*
X526Y332D01*
X545Y332D02*
X551Y332D01*
X595Y332D02*
X601Y332D01*
X997Y332D02*
X1004Y332D01*
X0Y331D02*
X7Y331D01*
X322Y331D02*
X323Y331D01*
X410Y331D02*
X440Y331D01*
X518Y331D02*
X525Y331D01*
X545Y331D02*
X551Y331D01*
X595Y331D02*
X601Y331D01*
X997Y331D02*
X1004Y331D01*
X0Y330D02*
X7Y330D01*
X322Y330D02*
X327Y330D01*
X407Y330D02*
X438Y330D01*
X518Y330D02*
X524Y330D01*
X545Y330D02*
X551Y330D01*
X595Y330D02*
X601Y330D01*
X997Y330D02*
X1004Y330D01*
X0Y329D02*
X7Y329D01*
X322Y329D02*
X331Y329D01*
X402Y329D02*
X435Y329D01*
X518Y329D02*
X524Y329D01*
X545Y329D02*
X551Y329D01*
X572Y329D02*
X601Y329D01*
X997Y329D02*
X1004Y329D01*
X0Y328D02*
X7Y328D01*
X322Y328D02*
X336Y328D01*
X397Y328D02*
X433Y328D01*
X518Y328D02*
X524Y328D01*
X545Y328D02*
X551Y328D01*
X570Y328D02*
X601Y328D01*
X997Y328D02*
X1004Y328D01*
X0Y327D02*
X7Y327D01*
X322Y327D02*
X343Y327D01*
X390Y327D02*
X430Y327D01*
X518Y327D02*
X524Y327D01*
X545Y327D02*
X551Y327D01*
X569Y327D02*
X601Y327D01*
X997Y327D02*
X1004Y327D01*
X0Y326D02*
X7Y326D01*
X322Y326D02*
X352Y326D01*
X381Y326D02*
X427Y326D01*
X518Y326D02*
X524Y326D01*
X545Y326D02*
X551Y326D01*
X569Y326D02*
X600Y326D01*
X997Y326D02*
X1004Y326D01*
X0Y325D02*
X7Y325D01*
X322Y325D02*
X425Y325D01*
X518Y325D02*
X524Y325D01*
X545Y325D02*
X551Y325D01*
X568Y325D02*
X600Y325D01*
X997Y325D02*
X1004Y325D01*
X0Y324D02*
X7Y324D01*
X322Y324D02*
X421Y324D01*
X518Y324D02*
X524Y324D01*
X545Y324D02*
X551Y324D01*
X568Y324D02*
X598Y324D01*
X997Y324D02*
X1004Y324D01*
X0Y323D02*
X7Y323D01*
X322Y323D02*
X418Y323D01*
X518Y323D02*
X524Y323D01*
X533Y323D02*
X536Y323D01*
X545Y323D02*
X551Y323D01*
X568Y323D02*
X597Y323D01*
X997Y323D02*
X1004Y323D01*
X0Y322D02*
X7Y322D01*
X322Y322D02*
X415Y322D01*
X518Y322D02*
X524Y322D01*
X532Y322D02*
X537Y322D01*
X545Y322D02*
X551Y322D01*
X568Y322D02*
X574Y322D01*
X997Y322D02*
X1004Y322D01*
X0Y321D02*
X7Y321D01*
X323Y321D02*
X411Y321D01*
X518Y321D02*
X524Y321D01*
X532Y321D02*
X537Y321D01*
X544Y321D02*
X551Y321D01*
X568Y321D02*
X574Y321D01*
X997Y321D02*
X1004Y321D01*
X0Y320D02*
X7Y320D01*
X327Y320D02*
X407Y320D01*
X518Y320D02*
X524Y320D01*
X532Y320D02*
X538Y320D01*
X543Y320D02*
X550Y320D01*
X568Y320D02*
X574Y320D01*
X997Y320D02*
X1004Y320D01*
X0Y319D02*
X7Y319D01*
X332Y319D02*
X402Y319D01*
X518Y319D02*
X524Y319D01*
X532Y319D02*
X538Y319D01*
X542Y319D02*
X550Y319D01*
X568Y319D02*
X574Y319D01*
X997Y319D02*
X1004Y319D01*
X0Y318D02*
X7Y318D01*
X338Y318D02*
X396Y318D01*
X518Y318D02*
X524Y318D01*
X532Y318D02*
X539Y318D01*
X541Y318D02*
X549Y318D01*
X568Y318D02*
X574Y318D01*
X997Y318D02*
X1004Y318D01*
X0Y317D02*
X7Y317D01*
X344Y317D02*
X389Y317D01*
X518Y317D02*
X524Y317D01*
X532Y317D02*
X549Y317D01*
X568Y317D02*
X574Y317D01*
X997Y317D02*
X1004Y317D01*
X0Y316D02*
X7Y316D01*
X355Y316D02*
X380Y316D01*
X518Y316D02*
X524Y316D01*
X533Y316D02*
X548Y316D01*
X568Y316D02*
X574Y316D01*
X997Y316D02*
X1004Y316D01*
X0Y315D02*
X7Y315D01*
X518Y315D02*
X524Y315D01*
X533Y315D02*
X547Y315D01*
X568Y315D02*
X574Y315D01*
X997Y315D02*
X1004Y315D01*
X0Y314D02*
X7Y314D01*
X518Y314D02*
X524Y314D01*
X534Y314D02*
X546Y314D01*
X568Y314D02*
X574Y314D01*
X997Y314D02*
X1004Y314D01*
X0Y313D02*
X7Y313D01*
X518Y313D02*
X524Y313D01*
X534Y313D02*
X545Y313D01*
X568Y313D02*
X574Y313D01*
X997Y313D02*
X1004Y313D01*
X0Y312D02*
X7Y312D01*
X518Y312D02*
X524Y312D01*
X534Y312D02*
X544Y312D01*
X568Y312D02*
X574Y312D01*
X997Y312D02*
X1004Y312D01*
X0Y311D02*
X7Y311D01*
X518Y311D02*
X524Y311D01*
X533Y311D02*
X543Y311D01*
X568Y311D02*
X574Y311D01*
X997Y311D02*
X1004Y311D01*
X0Y310D02*
X7Y310D01*
X518Y310D02*
X524Y310D01*
X532Y310D02*
X542Y310D01*
X568Y310D02*
X574Y310D01*
X997Y310D02*
X1004Y310D01*
X0Y309D02*
X7Y309D01*
X279Y309D02*
X284Y309D01*
X518Y309D02*
X524Y309D01*
X530Y309D02*
X542Y309D01*
X568Y309D02*
X574Y309D01*
X997Y309D02*
X1004Y309D01*
X0Y308D02*
X7Y308D01*
X518Y308D02*
X524Y308D01*
X529Y308D02*
X542Y308D01*
X568Y308D02*
X574Y308D01*
X997Y308D02*
X1004Y308D01*
X0Y307D02*
X7Y307D01*
X518Y307D02*
X524Y307D01*
X528Y307D02*
X543Y307D01*
X568Y307D02*
X574Y307D01*
X997Y307D02*
X1004Y307D01*
X0Y306D02*
X7Y306D01*
X518Y306D02*
X525Y306D01*
X527Y306D02*
X544Y306D01*
X568Y306D02*
X574Y306D01*
X997Y306D02*
X1004Y306D01*
X0Y305D02*
X7Y305D01*
X518Y305D02*
X535Y305D01*
X537Y305D02*
X550Y305D01*
X568Y305D02*
X600Y305D01*
X997Y305D02*
X1004Y305D01*
X0Y304D02*
X7Y304D01*
X519Y304D02*
X534Y304D01*
X537Y304D02*
X551Y304D01*
X568Y304D02*
X601Y304D01*
X997Y304D02*
X1004Y304D01*
X0Y303D02*
X7Y303D01*
X519Y303D02*
X533Y303D01*
X538Y303D02*
X551Y303D01*
X568Y303D02*
X601Y303D01*
X997Y303D02*
X1004Y303D01*
X0Y302D02*
X7Y302D01*
X520Y302D02*
X532Y302D01*
X538Y302D02*
X551Y302D01*
X568Y302D02*
X601Y302D01*
X997Y302D02*
X1004Y302D01*
X0Y301D02*
X7Y301D01*
X521Y301D02*
X531Y301D01*
X539Y301D02*
X551Y301D01*
X568Y301D02*
X601Y301D01*
X997Y301D02*
X1004Y301D01*
X0Y300D02*
X7Y300D01*
X522Y300D02*
X529Y300D01*
X539Y300D02*
X550Y300D01*
X568Y300D02*
X600Y300D01*
X997Y300D02*
X1004Y300D01*
X0Y299D02*
X7Y299D01*
X526Y299D02*
X526Y299D01*
X540Y299D02*
X548Y299D01*
X568Y299D02*
X598Y299D01*
X997Y299D02*
X1004Y299D01*
X0Y298D02*
X7Y298D01*
X997Y298D02*
X1004Y298D01*
X0Y297D02*
X7Y297D01*
X997Y297D02*
X1004Y297D01*
X0Y296D02*
X7Y296D01*
X997Y296D02*
X1004Y296D01*
X0Y295D02*
X7Y295D01*
X997Y295D02*
X1004Y295D01*
X0Y294D02*
X7Y294D01*
X997Y294D02*
X1004Y294D01*
X0Y293D02*
X7Y293D01*
X997Y293D02*
X1004Y293D01*
X0Y292D02*
X7Y292D01*
X997Y292D02*
X1004Y292D01*
X0Y291D02*
X7Y291D01*
X997Y291D02*
X1004Y291D01*
X0Y290D02*
X7Y290D01*
X997Y290D02*
X1004Y290D01*
X0Y289D02*
X7Y289D01*
X997Y289D02*
X1004Y289D01*
X0Y288D02*
X7Y288D01*
X997Y288D02*
X1004Y288D01*
X0Y287D02*
X7Y287D01*
X997Y287D02*
X1004Y287D01*
X0Y286D02*
X7Y286D01*
X997Y286D02*
X1004Y286D01*
X0Y285D02*
X7Y285D01*
X997Y285D02*
X1004Y285D01*
X0Y284D02*
X7Y284D01*
X997Y284D02*
X1004Y284D01*
X0Y283D02*
X7Y283D01*
X997Y283D02*
X1004Y283D01*
X0Y282D02*
X7Y282D01*
X997Y282D02*
X1004Y282D01*
X0Y281D02*
X7Y281D01*
X997Y281D02*
X1004Y281D01*
X0Y280D02*
X7Y280D01*
X997Y280D02*
X1004Y280D01*
X0Y279D02*
X7Y279D01*
X997Y279D02*
X1004Y279D01*
X0Y278D02*
X7Y278D01*
X997Y278D02*
X1004Y278D01*
X0Y277D02*
X7Y277D01*
X997Y277D02*
X1004Y277D01*
X0Y276D02*
X7Y276D01*
X997Y276D02*
X1004Y276D01*
X0Y275D02*
X7Y275D01*
X997Y275D02*
X1004Y275D01*
X0Y274D02*
X7Y274D01*
X997Y274D02*
X1004Y274D01*
X0Y273D02*
X7Y273D01*
X997Y273D02*
X1004Y273D01*
X0Y272D02*
X7Y272D01*
X997Y272D02*
X1004Y272D01*
X0Y271D02*
X7Y271D01*
X997Y271D02*
X1004Y271D01*
X0Y270D02*
X7Y270D01*
X997Y270D02*
X1004Y270D01*
X0Y269D02*
X7Y269D01*
X997Y269D02*
X1004Y269D01*
X0Y268D02*
X7Y268D01*
X997Y268D02*
X1004Y268D01*
X0Y267D02*
X7Y267D01*
X997Y267D02*
X1004Y267D01*
X0Y266D02*
X7Y266D01*
X997Y266D02*
X1004Y266D01*
X0Y265D02*
X7Y265D01*
X997Y265D02*
X1004Y265D01*
X0Y264D02*
X7Y264D01*
X997Y264D02*
X1004Y264D01*
X0Y263D02*
X7Y263D01*
X997Y263D02*
X1004Y263D01*
X0Y262D02*
X7Y262D01*
X997Y262D02*
X1004Y262D01*
X0Y261D02*
X7Y261D01*
X997Y261D02*
X1004Y261D01*
X0Y260D02*
X7Y260D01*
X997Y260D02*
X1004Y260D01*
X0Y259D02*
X7Y259D01*
X997Y259D02*
X1004Y259D01*
X0Y258D02*
X7Y258D01*
X997Y258D02*
X1004Y258D01*
X0Y257D02*
X7Y257D01*
X997Y257D02*
X1004Y257D01*
X0Y256D02*
X7Y256D01*
X997Y256D02*
X1004Y256D01*
X0Y255D02*
X7Y255D01*
X997Y255D02*
X1004Y255D01*
X0Y254D02*
X7Y254D01*
X997Y254D02*
X1004Y254D01*
X0Y253D02*
X7Y253D01*
X997Y253D02*
X1004Y253D01*
X0Y252D02*
X7Y252D01*
X997Y252D02*
X1004Y252D01*
X0Y251D02*
X7Y251D01*
X997Y251D02*
X1004Y251D01*
X0Y250D02*
X7Y250D01*
X997Y250D02*
X1004Y250D01*
X0Y249D02*
X7Y249D01*
X997Y249D02*
X1004Y249D01*
X0Y248D02*
X7Y248D01*
X997Y248D02*
X1004Y248D01*
X0Y247D02*
X7Y247D01*
X997Y247D02*
X1004Y247D01*
X0Y246D02*
X7Y246D01*
X997Y246D02*
X1004Y246D01*
X0Y245D02*
X7Y245D01*
X997Y245D02*
X1004Y245D01*
X0Y244D02*
X7Y244D01*
X997Y244D02*
X1004Y244D01*
X0Y243D02*
X7Y243D01*
X997Y243D02*
X1004Y243D01*
X0Y242D02*
X7Y242D01*
X997Y242D02*
X1004Y242D01*
X0Y241D02*
X7Y241D01*
X997Y241D02*
X1004Y241D01*
X0Y240D02*
X7Y240D01*
X997Y240D02*
X1004Y240D01*
X0Y239D02*
X7Y239D01*
X997Y239D02*
X1004Y239D01*
X0Y238D02*
X7Y238D01*
X997Y238D02*
X1004Y238D01*
X0Y237D02*
X7Y237D01*
X997Y237D02*
X1004Y237D01*
X0Y236D02*
X7Y236D01*
X997Y236D02*
X1004Y236D01*
X0Y235D02*
X7Y235D01*
X392Y235D02*
X429Y235D01*
X472Y235D02*
X509Y235D01*
X997Y235D02*
X1004Y235D01*
X0Y234D02*
X7Y234D01*
X392Y234D02*
X429Y234D01*
X472Y234D02*
X509Y234D01*
X997Y234D02*
X1004Y234D01*
X0Y233D02*
X7Y233D01*
X392Y233D02*
X429Y233D01*
X471Y233D02*
X509Y233D01*
X997Y233D02*
X1004Y233D01*
X0Y232D02*
X7Y232D01*
X392Y232D02*
X509Y232D01*
X997Y232D02*
X1004Y232D01*
X0Y231D02*
X7Y231D01*
X392Y231D02*
X395Y231D01*
X506Y231D02*
X509Y231D01*
X997Y231D02*
X1004Y231D01*
X0Y230D02*
X7Y230D01*
X392Y230D02*
X395Y230D01*
X506Y230D02*
X509Y230D01*
X997Y230D02*
X1004Y230D01*
X0Y229D02*
X7Y229D01*
X392Y229D02*
X395Y229D01*
X506Y229D02*
X509Y229D01*
X997Y229D02*
X1004Y229D01*
X0Y228D02*
X7Y228D01*
X392Y228D02*
X395Y228D01*
X506Y228D02*
X509Y228D01*
X997Y228D02*
X1004Y228D01*
X0Y227D02*
X7Y227D01*
X392Y227D02*
X395Y227D01*
X506Y227D02*
X509Y227D01*
X997Y227D02*
X1004Y227D01*
X0Y226D02*
X7Y226D01*
X392Y226D02*
X395Y226D01*
X506Y226D02*
X509Y226D01*
X997Y226D02*
X1004Y226D01*
X0Y225D02*
X7Y225D01*
X392Y225D02*
X395Y225D01*
X506Y225D02*
X509Y225D01*
X997Y225D02*
X1004Y225D01*
X0Y224D02*
X7Y224D01*
X392Y224D02*
X395Y224D01*
X506Y224D02*
X509Y224D01*
X997Y224D02*
X1004Y224D01*
X0Y223D02*
X7Y223D01*
X392Y223D02*
X395Y223D01*
X506Y223D02*
X509Y223D01*
X997Y223D02*
X1004Y223D01*
X0Y222D02*
X7Y222D01*
X392Y222D02*
X395Y222D01*
X506Y222D02*
X509Y222D01*
X997Y222D02*
X1004Y222D01*
X0Y221D02*
X7Y221D01*
X392Y221D02*
X395Y221D01*
X506Y221D02*
X509Y221D01*
X997Y221D02*
X1004Y221D01*
X0Y220D02*
X7Y220D01*
X392Y220D02*
X395Y220D01*
X506Y220D02*
X509Y220D01*
X997Y220D02*
X1004Y220D01*
X0Y219D02*
X7Y219D01*
X392Y219D02*
X395Y219D01*
X506Y219D02*
X509Y219D01*
X997Y219D02*
X1004Y219D01*
X0Y218D02*
X7Y218D01*
X392Y218D02*
X395Y218D01*
X506Y218D02*
X509Y218D01*
X997Y218D02*
X1004Y218D01*
X0Y217D02*
X7Y217D01*
X392Y217D02*
X395Y217D01*
X506Y217D02*
X509Y217D01*
X997Y217D02*
X1004Y217D01*
X0Y216D02*
X7Y216D01*
X392Y216D02*
X395Y216D01*
X506Y216D02*
X509Y216D01*
X997Y216D02*
X1004Y216D01*
X0Y215D02*
X7Y215D01*
X392Y215D02*
X395Y215D01*
X506Y215D02*
X509Y215D01*
X997Y215D02*
X1004Y215D01*
X0Y214D02*
X7Y214D01*
X392Y214D02*
X395Y214D01*
X506Y214D02*
X509Y214D01*
X997Y214D02*
X1004Y214D01*
X0Y213D02*
X7Y213D01*
X392Y213D02*
X395Y213D01*
X506Y213D02*
X509Y213D01*
X997Y213D02*
X1004Y213D01*
X0Y212D02*
X7Y212D01*
X392Y212D02*
X395Y212D01*
X506Y212D02*
X509Y212D01*
X997Y212D02*
X1004Y212D01*
X0Y211D02*
X7Y211D01*
X392Y211D02*
X395Y211D01*
X506Y211D02*
X509Y211D01*
X997Y211D02*
X1004Y211D01*
X0Y210D02*
X7Y210D01*
X392Y210D02*
X395Y210D01*
X506Y210D02*
X509Y210D01*
X997Y210D02*
X1004Y210D01*
X0Y209D02*
X7Y209D01*
X392Y209D02*
X395Y209D01*
X506Y209D02*
X509Y209D01*
X997Y209D02*
X1004Y209D01*
X0Y208D02*
X7Y208D01*
X392Y208D02*
X395Y208D01*
X506Y208D02*
X509Y208D01*
X997Y208D02*
X1004Y208D01*
X0Y207D02*
X7Y207D01*
X392Y207D02*
X395Y207D01*
X506Y207D02*
X509Y207D01*
X997Y207D02*
X1004Y207D01*
X0Y206D02*
X7Y206D01*
X392Y206D02*
X395Y206D01*
X506Y206D02*
X509Y206D01*
X997Y206D02*
X1004Y206D01*
X0Y205D02*
X7Y205D01*
X392Y205D02*
X395Y205D01*
X506Y205D02*
X509Y205D01*
X997Y205D02*
X1004Y205D01*
X0Y204D02*
X7Y204D01*
X392Y204D02*
X395Y204D01*
X506Y204D02*
X509Y204D01*
X997Y204D02*
X1004Y204D01*
X0Y203D02*
X7Y203D01*
X392Y203D02*
X395Y203D01*
X506Y203D02*
X509Y203D01*
X997Y203D02*
X1004Y203D01*
X0Y202D02*
X7Y202D01*
X392Y202D02*
X395Y202D01*
X506Y202D02*
X509Y202D01*
X997Y202D02*
X1004Y202D01*
X0Y201D02*
X7Y201D01*
X392Y201D02*
X395Y201D01*
X506Y201D02*
X509Y201D01*
X997Y201D02*
X1004Y201D01*
X0Y200D02*
X7Y200D01*
X392Y200D02*
X509Y200D01*
X997Y200D02*
X1004Y200D01*
X0Y199D02*
X7Y199D01*
X392Y199D02*
X392Y199D01*
X434Y199D02*
X467Y199D01*
X509Y199D02*
X509Y199D01*
X997Y199D02*
X1004Y199D01*
X0Y198D02*
X7Y198D01*
X392Y198D02*
X392Y198D01*
X434Y198D02*
X467Y198D01*
X509Y198D02*
X509Y198D01*
X997Y198D02*
X1004Y198D01*
X0Y197D02*
X7Y197D01*
X392Y197D02*
X392Y197D01*
X434Y197D02*
X467Y197D01*
X509Y197D02*
X509Y197D01*
X997Y197D02*
X1004Y197D01*
X0Y196D02*
X7Y196D01*
X997Y196D02*
X1004Y196D01*
X0Y195D02*
X7Y195D01*
X997Y195D02*
X1004Y195D01*
X0Y194D02*
X7Y194D01*
X997Y194D02*
X1004Y194D01*
X0Y193D02*
X7Y193D01*
X997Y193D02*
X1004Y193D01*
X0Y192D02*
X7Y192D01*
X997Y192D02*
X1004Y192D01*
X0Y191D02*
X7Y191D01*
X997Y191D02*
X1004Y191D01*
X0Y190D02*
X7Y190D01*
X997Y190D02*
X1004Y190D01*
X0Y189D02*
X7Y189D01*
X997Y189D02*
X1004Y189D01*
X0Y188D02*
X7Y188D01*
X997Y188D02*
X1004Y188D01*
X0Y187D02*
X7Y187D01*
X997Y187D02*
X1004Y187D01*
X0Y186D02*
X7Y186D01*
X997Y186D02*
X1004Y186D01*
X0Y185D02*
X7Y185D01*
X997Y185D02*
X1004Y185D01*
X0Y184D02*
X7Y184D01*
X997Y184D02*
X1004Y184D01*
X0Y183D02*
X7Y183D01*
X997Y183D02*
X1004Y183D01*
X0Y182D02*
X7Y182D01*
X997Y182D02*
X1004Y182D01*
X0Y181D02*
X7Y181D01*
X997Y181D02*
X1004Y181D01*
X0Y180D02*
X7Y180D01*
X997Y180D02*
X1004Y180D01*
X0Y179D02*
X7Y179D01*
X997Y179D02*
X1004Y179D01*
X0Y178D02*
X7Y178D01*
X997Y178D02*
X1004Y178D01*
X0Y177D02*
X7Y177D01*
X997Y177D02*
X1004Y177D01*
X0Y176D02*
X7Y176D01*
X997Y176D02*
X1004Y176D01*
X0Y175D02*
X7Y175D01*
X997Y175D02*
X1004Y175D01*
X0Y174D02*
X7Y174D01*
X997Y174D02*
X1004Y174D01*
X0Y173D02*
X7Y173D01*
X997Y173D02*
X1004Y173D01*
X0Y172D02*
X7Y172D01*
X997Y172D02*
X1004Y172D01*
X0Y171D02*
X7Y171D01*
X997Y171D02*
X1004Y171D01*
X0Y170D02*
X7Y170D01*
X997Y170D02*
X1004Y170D01*
X0Y169D02*
X7Y169D01*
X997Y169D02*
X1004Y169D01*
X0Y168D02*
X7Y168D01*
X997Y168D02*
X1004Y168D01*
X0Y167D02*
X7Y167D01*
X997Y167D02*
X1004Y167D01*
X0Y166D02*
X7Y166D01*
X997Y166D02*
X1004Y166D01*
X0Y165D02*
X7Y165D01*
X997Y165D02*
X1004Y165D01*
X0Y164D02*
X7Y164D01*
X997Y164D02*
X1004Y164D01*
X0Y163D02*
X7Y163D01*
X997Y163D02*
X1004Y163D01*
X0Y162D02*
X7Y162D01*
X997Y162D02*
X1004Y162D01*
X0Y161D02*
X7Y161D01*
X997Y161D02*
X1004Y161D01*
X0Y160D02*
X7Y160D01*
X997Y160D02*
X1004Y160D01*
X0Y159D02*
X7Y159D01*
X997Y159D02*
X1004Y159D01*
X0Y158D02*
X7Y158D01*
X997Y158D02*
X1004Y158D01*
X0Y157D02*
X7Y157D01*
X997Y157D02*
X1004Y157D01*
X0Y156D02*
X7Y156D01*
X997Y156D02*
X1004Y156D01*
X0Y155D02*
X7Y155D01*
X997Y155D02*
X1004Y155D01*
X0Y154D02*
X7Y154D01*
X997Y154D02*
X1004Y154D01*
X0Y153D02*
X7Y153D01*
X997Y153D02*
X1004Y153D01*
X0Y152D02*
X7Y152D01*
X997Y152D02*
X1004Y152D01*
X0Y151D02*
X7Y151D01*
X997Y151D02*
X1004Y151D01*
X0Y150D02*
X7Y150D01*
X997Y150D02*
X1004Y150D01*
X0Y149D02*
X7Y149D01*
X997Y149D02*
X1004Y149D01*
X0Y148D02*
X7Y148D01*
X997Y148D02*
X1004Y148D01*
X0Y147D02*
X7Y147D01*
X997Y147D02*
X1004Y147D01*
X0Y146D02*
X7Y146D01*
X997Y146D02*
X1004Y146D01*
X0Y145D02*
X7Y145D01*
X997Y145D02*
X1004Y145D01*
X0Y144D02*
X7Y144D01*
X997Y144D02*
X1004Y144D01*
X0Y143D02*
X7Y143D01*
X997Y143D02*
X1004Y143D01*
X0Y142D02*
X7Y142D01*
X997Y142D02*
X1004Y142D01*
X0Y141D02*
X7Y141D01*
X997Y141D02*
X1004Y141D01*
X0Y140D02*
X7Y140D01*
X997Y140D02*
X1004Y140D01*
X0Y139D02*
X7Y139D01*
X997Y139D02*
X1004Y139D01*
X0Y138D02*
X7Y138D01*
X997Y138D02*
X1004Y138D01*
X0Y137D02*
X7Y137D01*
X997Y137D02*
X1004Y137D01*
X0Y136D02*
X7Y136D01*
X997Y136D02*
X1004Y136D01*
X0Y135D02*
X7Y135D01*
X997Y135D02*
X1004Y135D01*
X0Y134D02*
X7Y134D01*
X997Y134D02*
X1004Y134D01*
X0Y133D02*
X7Y133D01*
X997Y133D02*
X1004Y133D01*
X0Y132D02*
X7Y132D01*
X997Y132D02*
X1004Y132D01*
X0Y131D02*
X7Y131D01*
X997Y131D02*
X1004Y131D01*
X0Y130D02*
X7Y130D01*
X997Y130D02*
X1004Y130D01*
X0Y129D02*
X7Y129D01*
X997Y129D02*
X1004Y129D01*
X0Y128D02*
X7Y128D01*
X997Y128D02*
X1004Y128D01*
X0Y127D02*
X7Y127D01*
X997Y127D02*
X1004Y127D01*
X0Y126D02*
X7Y126D01*
X997Y126D02*
X1004Y126D01*
X0Y125D02*
X7Y125D01*
X997Y125D02*
X1004Y125D01*
X0Y124D02*
X7Y124D01*
X997Y124D02*
X1004Y124D01*
X0Y123D02*
X7Y123D01*
X997Y123D02*
X1004Y123D01*
X0Y122D02*
X7Y122D01*
X997Y122D02*
X1004Y122D01*
X0Y121D02*
X7Y121D01*
X997Y121D02*
X1004Y121D01*
X0Y120D02*
X7Y120D01*
X997Y120D02*
X1004Y120D01*
X0Y119D02*
X7Y119D01*
X997Y119D02*
X1004Y119D01*
X0Y118D02*
X7Y118D01*
X997Y118D02*
X1004Y118D01*
X0Y117D02*
X7Y117D01*
X997Y117D02*
X1004Y117D01*
X0Y116D02*
X7Y116D01*
X997Y116D02*
X1004Y116D01*
X0Y115D02*
X7Y115D01*
X997Y115D02*
X1004Y115D01*
X0Y114D02*
X7Y114D01*
X997Y114D02*
X1004Y114D01*
X0Y113D02*
X7Y113D01*
X997Y113D02*
X1004Y113D01*
X0Y112D02*
X7Y112D01*
X997Y112D02*
X1004Y112D01*
X0Y111D02*
X7Y111D01*
X997Y111D02*
X1004Y111D01*
X0Y110D02*
X7Y110D01*
X997Y110D02*
X1004Y110D01*
X0Y109D02*
X7Y109D01*
X997Y109D02*
X1004Y109D01*
X0Y108D02*
X7Y108D01*
X997Y108D02*
X1004Y108D01*
X0Y107D02*
X7Y107D01*
X997Y107D02*
X1004Y107D01*
X0Y106D02*
X7Y106D01*
X997Y106D02*
X1004Y106D01*
X0Y105D02*
X7Y105D01*
X997Y105D02*
X1004Y105D01*
X0Y104D02*
X7Y104D01*
X997Y104D02*
X1004Y104D01*
X0Y103D02*
X7Y103D01*
X997Y103D02*
X1004Y103D01*
X0Y102D02*
X7Y102D01*
X997Y102D02*
X1004Y102D01*
X0Y101D02*
X7Y101D01*
X997Y101D02*
X1004Y101D01*
X0Y100D02*
X7Y100D01*
X997Y100D02*
X1004Y100D01*
X0Y99D02*
X7Y99D01*
X997Y99D02*
X1004Y99D01*
X0Y98D02*
X7Y98D01*
X997Y98D02*
X1004Y98D01*
X0Y97D02*
X7Y97D01*
X997Y97D02*
X1004Y97D01*
X0Y96D02*
X7Y96D01*
X997Y96D02*
X1004Y96D01*
X0Y95D02*
X7Y95D01*
X997Y95D02*
X1004Y95D01*
X0Y94D02*
X7Y94D01*
X997Y94D02*
X1004Y94D01*
X0Y93D02*
X7Y93D01*
X997Y93D02*
X1004Y93D01*
X0Y92D02*
X7Y92D01*
X997Y92D02*
X1004Y92D01*
X0Y91D02*
X7Y91D01*
X997Y91D02*
X1004Y91D01*
X0Y90D02*
X7Y90D01*
X997Y90D02*
X1004Y90D01*
X0Y89D02*
X7Y89D01*
X997Y89D02*
X1004Y89D01*
X0Y88D02*
X7Y88D01*
X997Y88D02*
X1004Y88D01*
X0Y87D02*
X7Y87D01*
X997Y87D02*
X1004Y87D01*
X0Y86D02*
X7Y86D01*
X997Y86D02*
X1004Y86D01*
X0Y85D02*
X7Y85D01*
X997Y85D02*
X1004Y85D01*
X0Y84D02*
X7Y84D01*
X997Y84D02*
X1004Y84D01*
X0Y83D02*
X7Y83D01*
X997Y83D02*
X1004Y83D01*
X0Y82D02*
X7Y82D01*
X997Y82D02*
X1004Y82D01*
X0Y81D02*
X7Y81D01*
X997Y81D02*
X1004Y81D01*
X0Y80D02*
X7Y80D01*
X997Y80D02*
X1004Y80D01*
X0Y79D02*
X7Y79D01*
X997Y79D02*
X1004Y79D01*
X0Y78D02*
X7Y78D01*
X997Y78D02*
X1004Y78D01*
X0Y77D02*
X7Y77D01*
X997Y77D02*
X1004Y77D01*
X0Y76D02*
X7Y76D01*
X997Y76D02*
X1004Y76D01*
X0Y75D02*
X7Y75D01*
X997Y75D02*
X1004Y75D01*
X0Y74D02*
X7Y74D01*
X997Y74D02*
X1004Y74D01*
X0Y73D02*
X7Y73D01*
X997Y73D02*
X1004Y73D01*
X0Y72D02*
X7Y72D01*
X997Y72D02*
X1004Y72D01*
X0Y71D02*
X7Y71D01*
X997Y71D02*
X1004Y71D01*
X0Y70D02*
X7Y70D01*
X997Y70D02*
X1004Y70D01*
X0Y69D02*
X7Y69D01*
X997Y69D02*
X1004Y69D01*
X0Y68D02*
X7Y68D01*
X997Y68D02*
X1004Y68D01*
X0Y67D02*
X7Y67D01*
X997Y67D02*
X1004Y67D01*
X0Y66D02*
X7Y66D01*
X997Y66D02*
X1004Y66D01*
X0Y65D02*
X7Y65D01*
X997Y65D02*
X1004Y65D01*
X0Y64D02*
X7Y64D01*
X997Y64D02*
X1004Y64D01*
X0Y63D02*
X7Y63D01*
X997Y63D02*
X1004Y63D01*
X0Y62D02*
X7Y62D01*
X997Y62D02*
X1004Y62D01*
X0Y61D02*
X7Y61D01*
X997Y61D02*
X1004Y61D01*
X0Y60D02*
X7Y60D01*
X997Y60D02*
X1004Y60D01*
X0Y59D02*
X7Y59D01*
X997Y59D02*
X1004Y59D01*
X0Y58D02*
X7Y58D01*
X997Y58D02*
X1004Y58D01*
X0Y57D02*
X7Y57D01*
X997Y57D02*
X1004Y57D01*
X0Y56D02*
X7Y56D01*
X997Y56D02*
X1004Y56D01*
X0Y55D02*
X7Y55D01*
X997Y55D02*
X1004Y55D01*
X0Y54D02*
X7Y54D01*
X997Y54D02*
X1004Y54D01*
X0Y53D02*
X7Y53D01*
X997Y53D02*
X1004Y53D01*
X0Y52D02*
X7Y52D01*
X997Y52D02*
X1004Y52D01*
X0Y51D02*
X7Y51D01*
X997Y51D02*
X1004Y51D01*
X0Y50D02*
X7Y50D01*
X997Y50D02*
X1004Y50D01*
X0Y49D02*
X7Y49D01*
X997Y49D02*
X1004Y49D01*
X0Y48D02*
X7Y48D01*
X997Y48D02*
X1004Y48D01*
X0Y47D02*
X7Y47D01*
X997Y47D02*
X1004Y47D01*
X0Y46D02*
X7Y46D01*
X997Y46D02*
X1004Y46D01*
X0Y45D02*
X7Y45D01*
X997Y45D02*
X1004Y45D01*
X0Y44D02*
X7Y44D01*
X997Y44D02*
X1004Y44D01*
X0Y43D02*
X7Y43D01*
X997Y43D02*
X1004Y43D01*
X0Y42D02*
X7Y42D01*
X997Y42D02*
X1004Y42D01*
X0Y41D02*
X7Y41D01*
X997Y41D02*
X1004Y41D01*
X0Y40D02*
X7Y40D01*
X997Y40D02*
X1004Y40D01*
X0Y39D02*
X7Y39D01*
X997Y39D02*
X1004Y39D01*
X0Y38D02*
X7Y38D01*
X997Y38D02*
X1004Y38D01*
X0Y37D02*
X7Y37D01*
X997Y37D02*
X1004Y37D01*
X0Y36D02*
X7Y36D01*
X997Y36D02*
X1004Y36D01*
X0Y35D02*
X7Y35D01*
X997Y35D02*
X1004Y35D01*
X0Y34D02*
X7Y34D01*
X997Y34D02*
X1004Y34D01*
X0Y33D02*
X7Y33D01*
X997Y33D02*
X1004Y33D01*
X0Y32D02*
X7Y32D01*
X997Y32D02*
X1004Y32D01*
X0Y31D02*
X7Y31D01*
X997Y31D02*
X1004Y31D01*
X0Y30D02*
X7Y30D01*
X997Y30D02*
X1004Y30D01*
X0Y29D02*
X7Y29D01*
X997Y29D02*
X1004Y29D01*
X0Y28D02*
X7Y28D01*
X997Y28D02*
X1004Y28D01*
X0Y27D02*
X7Y27D01*
X997Y27D02*
X1004Y27D01*
X0Y26D02*
X7Y26D01*
X997Y26D02*
X1004Y26D01*
X0Y25D02*
X7Y25D01*
X997Y25D02*
X1004Y25D01*
X0Y24D02*
X7Y24D01*
X997Y24D02*
X1004Y24D01*
X0Y23D02*
X7Y23D01*
X997Y23D02*
X1004Y23D01*
X0Y22D02*
X7Y22D01*
X997Y22D02*
X1004Y22D01*
X0Y21D02*
X7Y21D01*
X997Y21D02*
X1004Y21D01*
X0Y20D02*
X7Y20D01*
X997Y20D02*
X1004Y20D01*
X0Y19D02*
X7Y19D01*
X997Y19D02*
X1004Y19D01*
X0Y18D02*
X7Y18D01*
X997Y18D02*
X1004Y18D01*
X0Y17D02*
X7Y17D01*
X997Y17D02*
X1004Y17D01*
X0Y16D02*
X7Y16D01*
X997Y16D02*
X1004Y16D01*
X0Y15D02*
X7Y15D01*
X997Y15D02*
X1004Y15D01*
X0Y14D02*
X7Y14D01*
X997Y14D02*
X1004Y14D01*
X0Y13D02*
X7Y13D01*
X997Y13D02*
X1004Y13D01*
X0Y12D02*
X7Y12D01*
X997Y12D02*
X1004Y12D01*
X0Y11D02*
X7Y11D01*
X997Y11D02*
X1004Y11D01*
X0Y10D02*
X7Y10D01*
X997Y10D02*
X1004Y10D01*
X0Y9D02*
X7Y9D01*
X997Y9D02*
X1004Y9D01*
X0Y8D02*
X1004Y8D01*
X0Y7D02*
X1004Y7D01*
X0Y6D02*
X1004Y6D01*
X0Y5D02*
X1004Y5D01*
X0Y4D02*
X1004Y4D01*
X0Y3D02*
X1004Y3D01*
X0Y2D02*
X1004Y2D01*
X0Y1D02*
X1004Y1D01*
D02*
G04 End of Silk1*
M02*